<?xml version="1.0" encoding="UTF-8"?>
<svg xmlns="http://www.w3.org/2000/svg" version="1.1" width="100" height="100" viewBox="0 0 100 100"><rect x="0" y="0" width="100" height="100" fill="#ffffff"/><g transform="scale(3.03)"><g transform="translate(0,0)"><path fill-rule="evenodd" d="M12 0L12 2L11 2L11 1L10 1L10 2L11 2L11 3L8 3L8 4L9 4L9 5L8 5L8 7L9 7L9 8L6 8L6 9L5 9L5 8L0 8L0 13L2 13L2 15L1 15L1 14L0 14L0 15L1 15L1 16L0 16L0 17L1 17L1 16L2 16L2 18L0 18L0 19L2 19L2 20L0 20L0 25L1 25L1 21L2 21L2 23L3 23L3 24L2 24L2 25L4 25L4 24L6 24L6 25L8 25L8 27L9 27L9 28L8 28L8 33L9 33L9 31L11 31L11 32L13 32L13 33L14 33L14 32L13 32L13 29L14 29L14 30L15 30L15 31L17 31L17 29L18 29L18 32L17 32L17 33L18 33L18 32L19 32L19 28L20 28L20 30L21 30L21 32L22 32L22 31L23 31L23 30L24 30L24 31L25 31L25 30L26 30L26 31L27 31L27 30L29 30L29 26L30 26L30 25L29 25L29 24L31 24L31 25L32 25L32 24L31 24L31 23L32 23L32 22L33 22L33 20L32 20L32 18L33 18L33 17L31 17L31 19L30 19L30 18L29 18L29 20L27 20L27 21L26 21L26 19L27 19L27 17L29 17L29 16L33 16L33 15L32 15L32 14L33 14L33 12L32 12L32 10L33 10L33 9L32 9L32 8L31 8L31 9L30 9L30 8L29 8L29 9L30 9L30 10L28 10L28 8L27 8L27 9L26 9L26 8L25 8L25 9L26 9L26 10L27 10L27 12L28 12L28 13L27 13L27 17L26 17L26 16L25 16L25 15L26 15L26 12L25 12L25 11L22 11L22 10L24 10L24 9L23 9L23 6L22 6L22 5L21 5L21 4L20 4L20 5L21 5L21 6L20 6L20 7L21 7L21 8L22 8L22 10L20 10L20 9L18 9L18 8L17 8L17 6L16 6L16 5L15 5L15 6L14 6L14 8L13 8L13 4L16 4L16 1L18 1L18 2L19 2L19 1L24 1L24 3L25 3L25 1L24 1L24 0L14 0L14 1L15 1L15 3L13 3L13 4L11 4L11 3L12 3L12 2L13 2L13 0ZM8 1L8 2L9 2L9 1ZM20 2L20 3L22 3L22 4L23 4L23 5L24 5L24 4L23 4L23 3L22 3L22 2ZM17 3L17 4L18 4L18 7L19 7L19 4L18 4L18 3ZM10 4L10 6L9 6L9 7L10 7L10 6L11 6L11 8L10 8L10 9L6 9L6 10L7 10L7 11L5 11L5 12L4 12L4 13L3 13L3 14L4 14L4 13L5 13L5 14L7 14L7 15L5 15L5 16L4 16L4 17L3 17L3 18L4 18L4 17L5 17L5 18L8 18L8 16L7 16L7 15L8 15L8 14L9 14L9 19L10 19L10 15L12 15L12 16L11 16L11 17L13 17L13 16L14 16L14 17L15 17L15 18L14 18L14 19L13 19L13 20L12 20L12 18L11 18L11 21L9 21L9 20L8 20L8 21L6 21L6 22L7 22L7 23L6 23L6 24L8 24L8 22L11 22L11 24L14 24L14 25L13 25L13 26L14 26L14 27L12 27L12 26L10 26L10 25L9 25L9 26L10 26L10 28L9 28L9 29L10 29L10 30L11 30L11 31L12 31L12 30L11 30L11 29L13 29L13 28L14 28L14 29L15 29L15 30L16 30L16 29L17 29L17 28L18 28L18 27L20 27L20 28L21 28L21 30L23 30L23 29L24 29L24 28L21 28L21 27L22 27L22 26L24 26L24 25L22 25L22 24L23 24L23 23L24 23L24 24L25 24L25 23L24 23L24 22L26 22L26 21L24 21L24 20L25 20L25 19L26 19L26 17L25 17L25 18L23 18L23 17L24 17L24 14L25 14L25 12L23 12L23 13L22 13L22 12L21 12L21 11L20 11L20 10L19 10L19 11L20 11L20 12L18 12L18 11L16 11L16 12L15 12L15 11L14 11L14 10L16 10L16 9L13 9L13 8L12 8L12 5L11 5L11 4ZM15 6L15 7L16 7L16 6ZM21 6L21 7L22 7L22 6ZM24 6L24 7L25 7L25 6ZM1 9L1 10L2 10L2 12L3 12L3 10L4 10L4 9ZM10 9L10 11L11 11L11 10L13 10L13 9ZM31 9L31 10L32 10L32 9ZM8 11L8 12L9 12L9 13L11 13L11 14L12 14L12 15L13 15L13 13L15 13L15 12L9 12L9 11ZM6 12L6 13L7 13L7 14L8 14L8 13L7 13L7 12ZM17 12L17 13L16 13L16 14L15 14L15 15L14 15L14 16L15 16L15 15L16 15L16 16L17 16L17 17L16 17L16 18L15 18L15 25L14 25L14 26L15 26L15 29L16 29L16 28L17 28L17 27L18 27L18 26L20 26L20 27L21 27L21 26L20 26L20 24L22 24L22 23L23 23L23 22L24 22L24 21L23 21L23 20L24 20L24 19L23 19L23 18L22 18L22 19L21 19L21 17L20 17L20 16L22 16L22 17L23 17L23 15L22 15L22 13L21 13L21 12L20 12L20 13L19 13L19 14L20 14L20 15L19 15L19 17L18 17L18 16L17 16L17 15L16 15L16 14L17 14L17 13L18 13L18 12ZM30 12L30 13L28 13L28 15L30 15L30 13L31 13L31 14L32 14L32 12ZM2 15L2 16L3 16L3 15ZM6 16L6 17L7 17L7 16ZM19 18L19 19L17 19L17 20L18 20L18 21L17 21L17 22L16 22L16 25L15 25L15 26L17 26L17 24L18 24L18 25L19 25L19 23L21 23L21 22L20 22L20 20L21 20L21 21L22 21L22 20L23 20L23 19L22 19L22 20L21 20L21 19L20 19L20 18ZM3 19L3 22L4 22L4 23L5 23L5 21L4 21L4 19ZM5 19L5 20L7 20L7 19ZM19 19L19 20L20 20L20 19ZM13 20L13 21L11 21L11 22L13 22L13 21L14 21L14 20ZM29 20L29 21L27 21L27 22L28 22L28 23L26 23L26 24L28 24L28 23L29 23L29 22L30 22L30 21L31 21L31 22L32 22L32 20ZM18 21L18 23L19 23L19 21ZM25 25L25 28L28 28L28 25ZM26 26L26 27L27 27L27 26ZM31 26L31 27L30 27L30 28L32 28L32 29L33 29L33 27L32 27L32 26ZM26 29L26 30L27 30L27 29ZM30 29L30 31L28 31L28 33L29 33L29 32L30 32L30 33L32 33L32 32L31 32L31 31L32 31L32 30L31 30L31 29ZM23 32L23 33L25 33L25 32ZM26 32L26 33L27 33L27 32ZM0 0L0 7L7 7L7 0ZM1 1L1 6L6 6L6 1ZM2 2L2 5L5 5L5 2ZM26 0L26 7L33 7L33 0ZM27 1L27 6L32 6L32 1ZM28 2L28 5L31 5L31 2ZM0 26L0 33L7 33L7 26ZM1 27L1 32L6 32L6 27ZM2 28L2 31L5 31L5 28Z" fill="#000000"/></g></g></svg>
