<?xml version="1.0" encoding="UTF-8"?>
<svg xmlns="http://www.w3.org/2000/svg" version="1.1" width="100" height="100" viewBox="0 0 100 100"><rect x="0" y="0" width="100" height="100" fill="#ffffff"/><g transform="scale(3.03)"><g transform="translate(0,0)"><path fill-rule="evenodd" d="M8 0L8 4L10 4L10 3L11 3L11 4L12 4L12 2L11 2L11 0ZM12 0L12 1L13 1L13 2L14 2L14 3L13 3L13 5L11 5L11 6L10 6L10 7L9 7L9 5L8 5L8 7L9 7L9 8L10 8L10 7L11 7L11 6L12 6L12 8L11 8L11 9L9 9L9 10L8 10L8 11L7 11L7 10L6 10L6 11L5 11L5 9L7 9L7 8L4 8L4 9L3 9L3 10L1 10L1 9L2 9L2 8L0 8L0 11L2 11L2 12L3 12L3 10L4 10L4 13L2 13L2 14L1 14L1 12L0 12L0 15L2 15L2 14L3 14L3 16L2 16L2 17L1 17L1 16L0 16L0 17L1 17L1 18L0 18L0 19L1 19L1 20L0 20L0 22L1 22L1 20L3 20L3 21L4 21L4 22L5 22L5 23L7 23L7 24L4 24L4 25L8 25L8 26L9 26L9 27L8 27L8 29L9 29L9 27L10 27L10 26L11 26L11 28L12 28L12 29L13 29L13 30L14 30L14 31L15 31L15 32L13 32L13 31L12 31L12 32L11 32L11 33L15 33L15 32L16 32L16 33L22 33L22 32L23 32L23 33L26 33L26 32L25 32L25 31L24 31L24 30L25 30L25 29L26 29L26 31L27 31L27 29L28 29L28 31L30 31L30 30L31 30L31 31L32 31L32 30L33 30L33 27L32 27L32 26L33 26L33 24L32 24L32 25L31 25L31 26L30 26L30 25L29 25L29 24L26 24L26 23L29 23L29 22L28 22L28 21L29 21L29 18L28 18L28 17L29 17L29 16L28 16L28 15L30 15L30 14L31 14L31 17L33 17L33 15L32 15L32 9L33 9L33 8L29 8L29 9L30 9L30 10L31 10L31 13L30 13L30 12L28 12L28 10L27 10L27 12L26 12L26 14L25 14L25 15L26 15L26 14L27 14L27 16L26 16L26 17L25 17L25 16L24 16L24 14L20 14L20 15L19 15L19 16L18 16L18 15L17 15L17 17L18 17L18 18L17 18L17 20L16 20L16 13L17 13L17 14L18 14L18 13L20 13L20 11L21 11L21 13L23 13L23 12L22 12L22 11L25 11L25 10L26 10L26 9L25 9L25 10L24 10L24 9L23 9L23 8L25 8L25 6L24 6L24 7L23 7L23 6L22 6L22 7L21 7L21 5L22 5L22 4L21 4L21 3L23 3L23 5L24 5L24 4L25 4L25 3L24 3L24 2L25 2L25 1L24 1L24 0L22 0L22 1L19 1L19 0L18 0L18 2L15 2L15 1L16 1L16 0L15 0L15 1L14 1L14 0ZM22 1L22 2L24 2L24 1ZM9 2L9 3L10 3L10 2ZM19 2L19 4L20 4L20 5L21 5L21 4L20 4L20 3L21 3L21 2ZM14 3L14 5L13 5L13 8L12 8L12 9L11 9L11 10L9 10L9 12L7 12L7 11L6 11L6 12L7 12L7 13L4 13L4 15L5 15L5 16L3 16L3 17L2 17L2 18L1 18L1 19L2 19L2 18L3 18L3 17L4 17L4 19L3 19L3 20L4 20L4 21L5 21L5 20L4 20L4 19L5 19L5 18L8 18L8 17L9 17L9 19L6 19L6 20L9 20L9 22L10 22L10 25L9 25L9 23L8 23L8 25L9 25L9 26L10 26L10 25L11 25L11 26L12 26L12 25L14 25L14 27L12 27L12 28L13 28L13 29L14 29L14 30L15 30L15 29L14 29L14 27L15 27L15 25L16 25L16 30L17 30L17 31L16 31L16 32L17 32L17 31L18 31L18 32L21 32L21 27L22 27L22 31L23 31L23 29L24 29L24 25L22 25L22 26L21 26L21 27L20 27L20 24L19 24L19 23L21 23L21 22L22 22L22 23L23 23L23 24L24 24L24 23L25 23L25 21L26 21L26 22L27 22L27 21L28 21L28 18L27 18L27 17L28 17L28 16L27 16L27 17L26 17L26 18L25 18L25 19L26 19L26 20L25 20L25 21L24 21L24 19L23 19L23 17L24 17L24 16L23 16L23 15L22 15L22 16L23 16L23 17L22 17L22 18L21 18L21 17L20 17L20 16L19 16L19 18L18 18L18 20L19 20L19 19L20 19L20 22L19 22L19 21L16 21L16 20L15 20L15 21L14 21L14 19L15 19L15 17L14 17L14 15L15 15L15 13L16 13L16 11L15 11L15 9L16 9L16 10L18 10L18 11L20 11L20 9L19 9L19 8L21 8L21 7L20 7L20 6L19 6L19 5L18 5L18 3L17 3L17 4L16 4L16 5L15 5L15 3ZM14 6L14 7L15 7L15 6ZM16 6L16 9L18 9L18 10L19 10L19 9L18 9L18 7L19 7L19 6L18 6L18 7L17 7L17 6ZM22 7L22 8L23 8L23 7ZM14 8L14 9L15 9L15 8ZM27 8L27 9L28 9L28 8ZM12 9L12 10L11 10L11 11L10 11L10 13L9 13L9 15L10 15L10 16L9 16L9 17L10 17L10 18L11 18L11 19L10 19L10 22L11 22L11 20L12 20L12 21L13 21L13 20L12 20L12 19L13 19L13 18L14 18L14 17L12 17L12 16L13 16L13 15L12 15L12 16L11 16L11 14L10 14L10 13L11 13L11 12L12 12L12 13L13 13L13 14L14 14L14 13L15 13L15 12L14 12L14 13L13 13L13 12L12 12L12 11L14 11L14 10L13 10L13 9ZM7 13L7 14L5 14L5 15L7 15L7 16L6 16L6 17L8 17L8 15L7 15L7 14L8 14L8 13ZM27 13L27 14L30 14L30 13ZM11 17L11 18L12 18L12 17ZM20 18L20 19L21 19L21 21L22 21L22 22L23 22L23 23L24 23L24 21L23 21L23 19L21 19L21 18ZM26 18L26 19L27 19L27 18ZM30 18L30 19L31 19L31 21L30 21L30 22L31 22L31 23L32 23L32 18ZM26 20L26 21L27 21L27 20ZM6 21L6 22L8 22L8 21ZM15 21L15 24L14 24L14 25L15 25L15 24L16 24L16 25L19 25L19 24L18 24L18 23L17 23L17 22L16 22L16 21ZM2 22L2 23L3 23L3 22ZM13 22L13 23L12 23L12 24L11 24L11 25L12 25L12 24L13 24L13 23L14 23L14 22ZM0 24L0 25L3 25L3 24ZM25 25L25 28L28 28L28 25ZM17 26L17 29L19 29L19 30L20 30L20 27L19 27L19 28L18 28L18 26ZM26 26L26 27L27 27L27 26ZM30 27L30 28L29 28L29 30L30 30L30 29L31 29L31 27ZM10 29L10 31L11 31L11 29ZM8 31L8 33L9 33L9 31ZM27 32L27 33L29 33L29 32ZM30 32L30 33L31 33L31 32ZM32 32L32 33L33 33L33 32ZM0 0L0 7L7 7L7 0ZM1 1L1 6L6 6L6 1ZM2 2L2 5L5 5L5 2ZM26 0L26 7L33 7L33 0ZM27 1L27 6L32 6L32 1ZM28 2L28 5L31 5L31 2ZM0 26L0 33L7 33L7 26ZM1 27L1 32L6 32L6 27ZM2 28L2 31L5 31L5 28Z" fill="#000000"/></g></g></svg>
