<?xml version="1.0" encoding="UTF-8"?>
<svg xmlns="http://www.w3.org/2000/svg" version="1.1" width="100" height="100" viewBox="0 0 100 100"><rect x="0" y="0" width="100" height="100" fill="#ffffff"/><g transform="scale(3.03)"><g transform="translate(0,0)"><path fill-rule="evenodd" d="M9 0L9 1L8 1L8 3L9 3L9 4L8 4L8 8L6 8L6 9L4 9L4 8L3 8L3 9L4 9L4 10L2 10L2 11L0 11L0 12L1 12L1 14L0 14L0 18L1 18L1 19L0 19L0 20L1 20L1 21L2 21L2 22L0 22L0 23L1 23L1 24L0 24L0 25L1 25L1 24L2 24L2 25L5 25L5 24L4 24L4 22L5 22L5 23L9 23L9 24L8 24L8 27L9 27L9 28L10 28L10 29L8 29L8 30L9 30L9 31L8 31L8 33L9 33L9 31L10 31L10 33L11 33L11 31L12 31L12 33L13 33L13 31L15 31L15 32L16 32L16 31L17 31L17 32L18 32L18 33L19 33L19 32L18 32L18 31L19 31L19 30L20 30L20 31L21 31L21 33L23 33L23 32L24 32L24 33L25 33L25 30L24 30L24 29L26 29L26 30L27 30L27 31L29 31L29 28L30 28L30 26L31 26L31 27L32 27L32 28L31 28L31 30L30 30L30 31L33 31L33 27L32 27L32 26L31 26L31 25L33 25L33 20L32 20L32 19L33 19L33 18L31 18L31 17L33 17L33 15L32 15L32 14L33 14L33 13L32 13L32 14L30 14L30 11L31 11L31 10L32 10L32 12L33 12L33 9L32 9L32 8L30 8L30 9L29 9L29 8L26 8L26 9L24 9L24 8L25 8L25 5L24 5L24 4L25 4L25 2L24 2L24 0L23 0L23 1L22 1L22 4L21 4L21 3L18 3L18 1L20 1L20 0L18 0L18 1L17 1L17 0L15 0L15 2L16 2L16 3L15 3L15 5L14 5L14 4L13 4L13 5L14 5L14 7L15 7L15 6L16 6L16 7L17 7L17 8L18 8L18 7L19 7L19 6L20 6L20 7L21 7L21 9L22 9L22 10L23 10L23 9L24 9L24 10L25 10L25 13L22 13L22 12L24 12L24 11L20 11L20 10L18 10L18 9L17 9L17 10L18 10L18 12L17 12L17 13L16 13L16 14L17 14L17 13L18 13L18 15L15 15L15 12L16 12L16 11L15 11L15 9L14 9L14 8L13 8L13 6L12 6L12 5L11 5L11 6L10 6L10 5L9 5L9 4L12 4L12 3L13 3L13 2L14 2L14 1L13 1L13 0L12 0L12 1L11 1L11 2L9 2L9 1L10 1L10 0ZM16 3L16 6L17 6L17 7L18 7L18 3ZM20 4L20 5L21 5L21 4ZM22 4L22 6L21 6L21 7L22 7L22 9L23 9L23 7L24 7L24 5L23 5L23 4ZM9 6L9 7L10 7L10 8L8 8L8 9L6 9L6 10L7 10L7 11L6 11L6 12L4 12L4 11L3 11L3 12L2 12L2 14L1 14L1 15L3 15L3 17L2 17L2 19L1 19L1 20L2 20L2 19L3 19L3 21L4 21L4 20L5 20L5 19L6 19L6 20L8 20L8 19L6 19L6 18L7 18L7 17L6 17L6 16L7 16L7 15L8 15L8 17L9 17L9 18L10 18L10 19L9 19L9 20L10 20L10 21L8 21L8 22L9 22L9 23L10 23L10 24L11 24L11 23L10 23L10 22L11 22L11 19L12 19L12 20L14 20L14 21L13 21L13 23L14 23L14 21L15 21L15 23L16 23L16 24L15 24L15 26L14 26L14 25L13 25L13 24L12 24L12 28L11 28L11 29L10 29L10 31L11 31L11 30L12 30L12 28L13 28L13 29L14 29L14 30L15 30L15 31L16 31L16 30L18 30L18 29L17 29L17 28L16 28L16 29L14 29L14 28L15 28L15 27L17 27L17 26L16 26L16 25L17 25L17 24L21 24L21 23L22 23L22 25L20 25L20 26L19 26L19 27L18 27L18 28L20 28L20 30L21 30L21 31L24 31L24 30L23 30L23 29L24 29L24 26L22 26L22 25L23 25L23 23L24 23L24 21L23 21L23 20L24 20L24 19L26 19L26 21L27 21L27 22L25 22L25 24L26 24L26 23L27 23L27 24L28 24L28 23L29 23L29 20L30 20L30 22L31 22L31 23L30 23L30 24L29 24L29 26L30 26L30 25L31 25L31 23L32 23L32 22L31 22L31 21L32 21L32 20L31 20L31 18L30 18L30 17L31 17L31 16L32 16L32 15L29 15L29 17L28 17L28 16L27 16L27 15L28 15L28 14L27 14L27 13L26 13L26 16L25 16L25 15L24 15L24 16L23 16L23 17L20 17L20 14L19 14L19 15L18 15L18 16L19 16L19 17L17 17L17 16L16 16L16 17L14 17L14 16L12 16L12 14L11 14L11 15L10 15L10 16L9 16L9 15L8 15L8 14L7 14L7 13L6 13L6 12L9 12L9 13L12 13L12 12L13 12L13 11L14 11L14 9L13 9L13 8L12 8L12 6L11 6L11 7L10 7L10 6ZM22 6L22 7L23 7L23 6ZM0 8L0 10L1 10L1 9L2 9L2 8ZM10 8L10 10L9 10L9 9L8 9L8 11L11 11L11 10L12 10L12 9L11 9L11 8ZM28 9L28 10L27 10L27 11L28 11L28 10L29 10L29 9ZM30 9L30 10L31 10L31 9ZM19 11L19 13L21 13L21 12L20 12L20 11ZM28 12L28 13L29 13L29 12ZM3 13L3 15L5 15L5 16L4 16L4 17L3 17L3 18L4 18L4 19L5 19L5 18L6 18L6 17L5 17L5 16L6 16L6 15L7 15L7 14L6 14L6 13L5 13L5 14L4 14L4 13ZM13 13L13 15L14 15L14 13ZM5 14L5 15L6 15L6 14ZM21 14L21 15L22 15L22 14ZM11 16L11 17L12 17L12 16ZM24 16L24 17L23 17L23 18L24 18L24 17L25 17L25 18L26 18L26 17L27 17L27 16L26 16L26 17L25 17L25 16ZM14 18L14 19L15 19L15 18ZM16 18L16 19L17 19L17 20L18 20L18 21L17 21L17 23L21 23L21 22L22 22L22 23L23 23L23 21L22 21L22 20L23 20L23 19L22 19L22 18L21 18L21 20L20 20L20 19L19 19L19 18L18 18L18 19L17 19L17 18ZM27 18L27 19L28 19L28 20L29 20L29 19L30 19L30 18ZM18 19L18 20L19 20L19 21L20 21L20 20L19 20L19 19ZM6 21L6 22L7 22L7 21ZM2 23L2 24L3 24L3 23ZM6 24L6 25L7 25L7 24ZM10 25L10 26L11 26L11 25ZM25 25L25 28L28 28L28 25ZM20 26L20 27L21 27L21 29L22 29L22 28L23 28L23 27L22 27L22 26ZM26 26L26 27L27 27L27 26ZM13 27L13 28L14 28L14 27ZM26 32L26 33L28 33L28 32ZM29 32L29 33L32 33L32 32ZM0 0L0 7L7 7L7 0ZM1 1L1 6L6 6L6 1ZM2 2L2 5L5 5L5 2ZM26 0L26 7L33 7L33 0ZM27 1L27 6L32 6L32 1ZM28 2L28 5L31 5L31 2ZM0 26L0 33L7 33L7 26ZM1 27L1 32L6 32L6 27ZM2 28L2 31L5 31L5 28Z" fill="#000000"/></g></g></svg>
