<?xml version="1.0" encoding="UTF-8"?>
<svg xmlns="http://www.w3.org/2000/svg" version="1.1" width="100" height="100" viewBox="0 0 100 100"><rect x="0" y="0" width="100" height="100" fill="#ffffff"/><g transform="scale(3.03)"><g transform="translate(0,0)"><path fill-rule="evenodd" d="M8 0L8 1L9 1L9 2L8 2L8 5L9 5L9 4L11 4L11 5L10 5L10 10L9 10L9 8L8 8L8 10L6 10L6 11L5 11L5 10L4 10L4 8L0 8L0 9L1 9L1 10L0 10L0 12L1 12L1 10L4 10L4 11L2 11L2 12L3 12L3 15L2 15L2 14L1 14L1 15L0 15L0 17L2 17L2 18L3 18L3 17L4 17L4 18L5 18L5 19L7 19L7 20L6 20L6 21L9 21L9 22L11 22L11 21L9 21L9 20L12 20L12 19L10 19L10 17L11 17L11 16L12 16L12 17L13 17L13 18L14 18L14 19L15 19L15 20L17 20L17 21L18 21L18 19L19 19L19 21L20 21L20 24L17 24L17 23L16 23L16 24L15 24L15 26L16 26L16 25L17 25L17 26L19 26L19 27L18 27L18 28L20 28L20 27L21 27L21 29L18 29L18 30L17 30L17 29L16 29L16 28L17 28L17 27L15 27L15 28L13 28L13 26L12 26L12 24L13 24L13 25L14 25L14 23L15 23L15 21L13 21L13 23L9 23L9 25L8 25L8 26L9 26L9 29L8 29L8 33L12 33L12 32L13 32L13 33L14 33L14 32L15 32L15 31L16 31L16 32L17 32L17 33L18 33L18 31L19 31L19 30L21 30L21 31L20 31L20 32L19 32L19 33L20 33L20 32L21 32L21 33L24 33L24 32L25 32L25 33L28 33L28 32L29 32L29 31L27 31L27 30L26 30L26 32L25 32L25 30L24 30L24 29L31 29L31 30L30 30L30 31L32 31L32 32L33 32L33 31L32 31L32 29L33 29L33 27L31 27L31 25L32 25L32 26L33 26L33 25L32 25L32 23L33 23L33 19L32 19L32 18L33 18L33 15L29 15L29 14L30 14L30 11L29 11L29 10L28 10L28 9L30 9L30 10L31 10L31 11L33 11L33 8L32 8L32 10L31 10L31 8L28 8L28 9L26 9L26 8L25 8L25 4L24 4L24 7L23 7L23 5L22 5L22 4L23 4L23 2L24 2L24 0L18 0L18 1L17 1L17 2L16 2L16 3L15 3L15 0L14 0L14 2L13 2L13 0L12 0L12 1L11 1L11 0L10 0L10 1L9 1L9 0ZM18 1L18 2L17 2L17 3L16 3L16 5L15 5L15 3L14 3L14 4L13 4L13 5L12 5L12 6L11 6L11 8L12 8L12 6L13 6L13 9L15 9L15 11L14 11L14 13L13 13L13 14L12 14L12 16L14 16L14 15L17 15L17 16L16 16L16 17L17 17L17 18L16 18L16 19L18 19L18 18L19 18L19 19L20 19L20 17L19 17L19 16L18 16L18 15L19 15L19 14L18 14L18 13L16 13L16 14L15 14L15 12L16 12L16 11L17 11L17 12L18 12L18 11L19 11L19 13L20 13L20 14L21 14L21 15L22 15L22 14L23 14L23 16L24 16L24 18L23 18L23 19L22 19L22 18L21 18L21 20L22 20L22 21L24 21L24 23L25 23L25 24L27 24L27 23L28 23L28 24L29 24L29 28L30 28L30 25L31 25L31 22L32 22L32 21L31 21L31 22L30 22L30 20L31 20L31 18L32 18L32 16L31 16L31 18L30 18L30 17L29 17L29 18L27 18L27 19L28 19L28 20L24 20L24 19L26 19L26 18L25 18L25 16L27 16L27 17L28 17L28 16L27 16L27 15L28 15L28 14L29 14L29 13L28 13L28 12L29 12L29 11L28 11L28 10L27 10L27 11L26 11L26 9L24 9L24 8L22 8L22 5L21 5L21 4L22 4L22 2L23 2L23 1L22 1L22 2L20 2L20 1ZM11 2L11 4L12 4L12 3L13 3L13 2ZM18 2L18 3L17 3L17 5L16 5L16 7L15 7L15 5L14 5L14 7L15 7L15 8L17 8L17 9L18 9L18 10L17 10L17 11L18 11L18 10L20 10L20 8L21 8L21 9L22 9L22 10L23 10L23 12L22 12L22 13L23 13L23 14L27 14L27 13L26 13L26 11L25 11L25 10L24 10L24 9L22 9L22 8L21 8L21 6L20 6L20 5L18 5L18 3L20 3L20 4L21 4L21 3L20 3L20 2ZM17 5L17 7L18 7L18 8L20 8L20 6L19 6L19 7L18 7L18 5ZM8 6L8 7L9 7L9 6ZM6 8L6 9L7 9L7 8ZM11 9L11 10L12 10L12 9ZM8 10L8 11L6 11L6 12L4 12L4 14L5 14L5 15L3 15L3 16L4 16L4 17L5 17L5 18L7 18L7 19L9 19L9 15L10 15L10 16L11 16L11 15L10 15L10 14L11 14L11 13L12 13L12 12L13 12L13 11L11 11L11 13L8 13L8 14L9 14L9 15L8 15L8 16L7 16L7 15L6 15L6 14L7 14L7 13L6 13L6 12L9 12L9 10ZM24 11L24 12L23 12L23 13L25 13L25 11ZM20 12L20 13L21 13L21 12ZM32 12L32 13L33 13L33 12ZM5 13L5 14L6 14L6 13ZM13 14L13 15L14 15L14 14ZM17 14L17 15L18 15L18 14ZM24 15L24 16L25 16L25 15ZM5 16L5 17L7 17L7 18L8 18L8 17L7 17L7 16ZM29 18L29 19L30 19L30 18ZM1 19L1 20L2 20L2 19ZM3 19L3 21L4 21L4 22L2 22L2 21L0 21L0 22L2 22L2 23L1 23L1 24L0 24L0 25L1 25L1 24L2 24L2 23L3 23L3 24L4 24L4 25L5 25L5 24L6 24L6 25L7 25L7 24L8 24L8 22L5 22L5 20L4 20L4 19ZM26 21L26 22L25 22L25 23L26 23L26 22L27 22L27 21ZM4 22L4 23L5 23L5 22ZM21 22L21 24L20 24L20 25L22 25L22 27L23 27L23 25L22 25L22 22ZM6 23L6 24L7 24L7 23ZM29 23L29 24L30 24L30 23ZM9 25L9 26L10 26L10 27L11 27L11 28L10 28L10 30L9 30L9 32L12 32L12 31L11 31L11 30L12 30L12 29L13 29L13 28L12 28L12 26L11 26L11 25ZM25 25L25 28L28 28L28 25ZM26 26L26 27L27 27L27 26ZM11 28L11 29L12 29L12 28ZM22 28L22 29L23 29L23 28ZM31 28L31 29L32 29L32 28ZM13 30L13 32L14 32L14 31L15 31L15 30ZM16 30L16 31L17 31L17 30ZM23 30L23 31L21 31L21 32L23 32L23 31L24 31L24 30ZM0 0L0 7L7 7L7 0ZM1 1L1 6L6 6L6 1ZM2 2L2 5L5 5L5 2ZM26 0L26 7L33 7L33 0ZM27 1L27 6L32 6L32 1ZM28 2L28 5L31 5L31 2ZM0 26L0 33L7 33L7 26ZM1 27L1 32L6 32L6 27ZM2 28L2 31L5 31L5 28Z" fill="#000000"/></g></g></svg>
