<?xml version="1.0" encoding="UTF-8"?>
<svg xmlns="http://www.w3.org/2000/svg" version="1.1" width="100" height="100" viewBox="0 0 100 100"><rect x="0" y="0" width="100" height="100" fill="#ffffff"/><g transform="scale(3.03)"><g transform="translate(0,0)"><path fill-rule="evenodd" d="M10 0L10 2L11 2L11 0ZM12 0L12 1L13 1L13 0ZM14 0L14 1L15 1L15 2L14 2L14 3L13 3L13 2L12 2L12 4L14 4L14 5L11 5L11 6L10 6L10 4L11 4L11 3L8 3L8 4L9 4L9 5L8 5L8 7L9 7L9 8L6 8L6 9L5 9L5 8L0 8L0 9L4 9L4 10L3 10L3 11L2 11L2 10L0 10L0 14L2 14L2 15L3 15L3 18L2 18L2 17L0 17L0 25L1 25L1 21L2 21L2 20L3 20L3 24L2 24L2 25L4 25L4 24L5 24L5 22L6 22L6 23L7 23L7 24L6 24L6 25L7 25L7 24L8 24L8 22L6 22L6 21L7 21L7 20L6 20L6 19L7 19L7 18L9 18L9 17L12 17L12 18L13 18L13 19L12 19L12 21L13 21L13 22L11 22L11 23L10 23L10 21L9 21L9 25L8 25L8 27L9 27L9 28L8 28L8 33L9 33L9 28L10 28L10 27L11 27L11 26L10 26L10 24L11 24L11 25L12 25L12 26L13 26L13 25L14 25L14 27L15 27L15 28L17 28L17 29L19 29L19 28L20 28L20 30L21 30L21 32L22 32L22 31L23 31L23 30L24 30L24 31L25 31L25 30L26 30L26 31L27 31L27 30L29 30L29 26L30 26L30 25L29 25L29 24L31 24L31 25L32 25L32 24L31 24L31 23L32 23L32 22L33 22L33 20L32 20L32 18L33 18L33 17L31 17L31 19L30 19L30 18L29 18L29 20L27 20L27 21L26 21L26 19L27 19L27 17L29 17L29 16L33 16L33 15L32 15L32 14L33 14L33 12L32 12L32 10L33 10L33 9L32 9L32 8L31 8L31 9L30 9L30 8L29 8L29 9L30 9L30 10L28 10L28 8L27 8L27 9L26 9L26 8L25 8L25 9L26 9L26 10L27 10L27 12L28 12L28 13L27 13L27 17L26 17L26 16L25 16L25 15L26 15L26 12L25 12L25 11L22 11L22 10L24 10L24 9L23 9L23 6L22 6L22 5L21 5L21 3L22 3L22 4L23 4L23 5L24 5L24 4L23 4L23 3L22 3L22 2L21 2L21 3L20 3L20 5L21 5L21 6L20 6L20 7L21 7L21 8L22 8L22 10L20 10L20 9L18 9L18 8L19 8L19 6L18 6L18 8L15 8L15 6L16 6L16 7L17 7L17 6L16 6L16 5L15 5L15 4L16 4L16 1L15 1L15 0ZM18 0L18 2L19 2L19 1L24 1L24 3L25 3L25 1L24 1L24 0ZM8 1L8 2L9 2L9 1ZM14 3L14 4L15 4L15 3ZM17 3L17 4L18 4L18 5L19 5L19 4L18 4L18 3ZM9 6L9 7L10 7L10 6ZM11 6L11 7L12 7L12 9L11 9L11 8L10 8L10 9L6 9L6 10L9 10L9 12L8 12L8 11L6 11L6 12L7 12L7 13L5 13L5 12L2 12L2 11L1 11L1 12L2 12L2 14L3 14L3 15L4 15L4 16L7 16L7 17L5 17L5 18L4 18L4 19L6 19L6 18L7 18L7 17L9 17L9 15L8 15L8 13L9 13L9 14L10 14L10 15L11 15L11 14L14 14L14 15L12 15L12 17L13 17L13 18L14 18L14 19L13 19L13 20L14 20L14 21L15 21L15 22L14 22L14 23L12 23L12 25L13 25L13 24L14 24L14 25L15 25L15 26L17 26L17 28L18 28L18 26L19 26L19 27L20 27L20 28L21 28L21 30L23 30L23 29L24 29L24 28L21 28L21 27L22 27L22 26L24 26L24 25L22 25L22 24L23 24L23 23L24 23L24 24L25 24L25 23L24 23L24 22L26 22L26 21L24 21L24 20L25 20L25 19L26 19L26 17L25 17L25 18L23 18L23 17L24 17L24 14L25 14L25 12L23 12L23 13L22 13L22 12L21 12L21 11L20 11L20 10L19 10L19 11L18 11L18 9L15 9L15 8L14 8L14 6L13 6L13 7L12 7L12 6ZM21 6L21 7L22 7L22 6ZM24 6L24 7L25 7L25 6ZM13 8L13 9L12 9L12 10L13 10L13 11L12 11L12 13L14 13L14 14L15 14L15 15L14 15L14 16L13 16L13 17L14 17L14 18L15 18L15 19L16 19L16 18L15 18L15 17L14 17L14 16L17 16L17 17L18 17L18 20L15 20L15 21L19 21L19 20L20 20L20 22L21 22L21 23L19 23L19 22L17 22L17 23L18 23L18 24L16 24L16 22L15 22L15 25L19 25L19 26L20 26L20 27L21 27L21 26L20 26L20 24L22 24L22 23L23 23L23 22L24 22L24 21L23 21L23 20L24 20L24 19L23 19L23 18L22 18L22 19L21 19L21 17L20 17L20 16L22 16L22 17L23 17L23 15L22 15L22 13L21 13L21 12L20 12L20 11L19 11L19 12L16 12L16 11L17 11L17 10L15 10L15 9L14 9L14 8ZM10 9L10 11L11 11L11 9ZM31 9L31 10L32 10L32 9ZM4 10L4 11L5 11L5 10ZM14 10L14 11L13 11L13 12L14 12L14 13L15 13L15 14L17 14L17 13L15 13L15 10ZM9 12L9 13L11 13L11 12ZM19 12L19 13L18 13L18 14L19 14L19 15L20 15L20 14L19 14L19 13L20 13L20 12ZM30 12L30 13L28 13L28 15L30 15L30 13L31 13L31 14L32 14L32 12ZM3 13L3 14L4 14L4 13ZM5 14L5 15L7 15L7 14ZM0 15L0 16L1 16L1 15ZM17 15L17 16L18 16L18 15ZM10 18L10 19L8 19L8 20L10 20L10 19L11 19L11 18ZM19 18L19 19L20 19L20 20L21 20L21 21L22 21L22 20L23 20L23 19L22 19L22 20L21 20L21 19L20 19L20 18ZM4 20L4 22L5 22L5 20ZM29 20L29 21L27 21L27 22L28 22L28 23L26 23L26 24L28 24L28 23L29 23L29 22L30 22L30 21L31 21L31 22L32 22L32 20ZM25 25L25 28L28 28L28 25ZM9 26L9 27L10 27L10 26ZM26 26L26 27L27 27L27 26ZM31 26L31 27L30 27L30 28L33 28L33 27L32 27L32 26ZM12 27L12 29L14 29L14 32L15 32L15 33L19 33L19 30L17 30L17 31L16 31L16 30L15 30L15 29L14 29L14 28L13 28L13 27ZM10 29L10 30L11 30L11 31L10 31L10 32L11 32L11 33L13 33L13 32L12 32L12 31L13 31L13 30L11 30L11 29ZM26 29L26 30L27 30L27 29ZM30 29L30 31L28 31L28 33L29 33L29 32L30 32L30 33L32 33L32 32L31 32L31 31L32 31L32 30L31 30L31 29ZM17 31L17 32L18 32L18 31ZM23 32L23 33L25 33L25 32ZM26 32L26 33L27 33L27 32ZM0 0L0 7L7 7L7 0ZM1 1L1 6L6 6L6 1ZM2 2L2 5L5 5L5 2ZM26 0L26 7L33 7L33 0ZM27 1L27 6L32 6L32 1ZM28 2L28 5L31 5L31 2ZM0 26L0 33L7 33L7 26ZM1 27L1 32L6 32L6 27ZM2 28L2 31L5 31L5 28Z" fill="#000000"/></g></g></svg>
