<?xml version="1.0" encoding="UTF-8"?>
<svg xmlns="http://www.w3.org/2000/svg" version="1.1" width="100" height="100" viewBox="0 0 100 100"><rect x="0" y="0" width="100" height="100" fill="#ffffff"/><g transform="scale(3.03)"><g transform="translate(0,0)"><path fill-rule="evenodd" d="M10 0L10 2L11 2L11 0ZM12 0L12 1L13 1L13 0ZM14 0L14 1L15 1L15 2L14 2L14 3L13 3L13 2L12 2L12 4L14 4L14 5L11 5L11 6L10 6L10 4L11 4L11 3L8 3L8 4L9 4L9 5L8 5L8 7L9 7L9 8L6 8L6 9L7 9L7 10L5 10L5 8L0 8L0 11L1 11L1 12L0 12L0 14L1 14L1 13L2 13L2 11L1 11L1 9L4 9L4 10L5 10L5 11L3 11L3 13L4 13L4 14L2 14L2 17L0 17L0 18L2 18L2 20L3 20L3 19L4 19L4 18L2 18L2 17L3 17L3 15L4 15L4 17L5 17L5 16L6 16L6 17L7 17L7 18L5 18L5 19L7 19L7 20L6 20L6 21L5 21L5 20L4 20L4 21L2 21L2 22L3 22L3 23L2 23L2 24L4 24L4 25L7 25L7 24L5 24L5 22L6 22L6 23L8 23L8 27L9 27L9 26L10 26L10 25L12 25L12 26L13 26L13 25L14 25L14 28L13 28L13 27L12 27L12 29L14 29L14 30L11 30L11 31L10 31L10 29L11 29L11 27L10 27L10 28L8 28L8 33L13 33L13 32L12 32L12 31L14 31L14 32L15 32L15 33L19 33L19 30L17 30L17 31L16 31L16 30L15 30L15 29L14 29L14 28L17 28L17 29L19 29L19 28L20 28L20 30L21 30L21 32L22 32L22 31L23 31L23 30L24 30L24 31L25 31L25 30L26 30L26 31L27 31L27 30L29 30L29 26L30 26L30 25L29 25L29 24L31 24L31 25L32 25L32 24L31 24L31 23L32 23L32 22L33 22L33 20L32 20L32 18L33 18L33 17L31 17L31 19L30 19L30 18L29 18L29 20L27 20L27 21L26 21L26 19L27 19L27 17L29 17L29 16L33 16L33 15L32 15L32 14L33 14L33 12L32 12L32 10L33 10L33 9L32 9L32 8L31 8L31 9L30 9L30 8L29 8L29 9L30 9L30 10L28 10L28 8L27 8L27 9L26 9L26 8L25 8L25 9L26 9L26 10L27 10L27 12L28 12L28 13L27 13L27 17L26 17L26 16L25 16L25 15L26 15L26 12L25 12L25 11L22 11L22 10L24 10L24 9L23 9L23 6L22 6L22 5L21 5L21 3L22 3L22 4L23 4L23 5L24 5L24 4L23 4L23 3L22 3L22 2L21 2L21 3L20 3L20 5L21 5L21 6L20 6L20 7L21 7L21 8L22 8L22 10L20 10L20 9L18 9L18 8L19 8L19 6L18 6L18 8L15 8L15 9L14 9L14 8L13 8L13 9L12 9L12 7L13 7L13 6L14 6L14 7L15 7L15 6L16 6L16 7L17 7L17 6L16 6L16 5L15 5L15 4L16 4L16 1L15 1L15 0ZM18 0L18 2L19 2L19 1L24 1L24 3L25 3L25 1L24 1L24 0ZM8 1L8 2L9 2L9 1ZM14 3L14 4L15 4L15 3ZM17 3L17 4L18 4L18 5L19 5L19 4L18 4L18 3ZM9 6L9 7L10 7L10 6ZM11 6L11 7L12 7L12 6ZM21 6L21 7L22 7L22 6ZM24 6L24 7L25 7L25 6ZM10 8L10 9L8 9L8 13L9 13L9 12L11 12L11 13L10 13L10 14L14 14L14 15L12 15L12 17L11 17L11 16L10 16L10 15L9 15L9 16L8 16L8 17L11 17L11 18L9 18L9 19L8 19L8 20L7 20L7 21L6 21L6 22L8 22L8 23L9 23L9 24L10 24L10 22L13 22L13 21L12 21L12 19L13 19L13 20L14 20L14 21L15 21L15 22L14 22L14 23L12 23L12 25L13 25L13 24L14 24L14 25L15 25L15 26L17 26L17 28L18 28L18 26L19 26L19 27L20 27L20 28L21 28L21 30L23 30L23 29L24 29L24 28L21 28L21 27L22 27L22 26L24 26L24 25L22 25L22 24L23 24L23 23L24 23L24 24L25 24L25 23L24 23L24 22L26 22L26 21L24 21L24 20L25 20L25 19L26 19L26 17L25 17L25 18L23 18L23 17L24 17L24 14L25 14L25 12L23 12L23 13L22 13L22 12L21 12L21 11L20 11L20 10L19 10L19 11L18 11L18 9L15 9L15 10L14 10L14 11L13 11L13 10L12 10L12 9L11 9L11 8ZM10 9L10 11L11 11L11 9ZM31 9L31 10L32 10L32 9ZM15 10L15 11L16 11L16 10ZM6 11L6 12L5 12L5 14L4 14L4 15L6 15L6 16L7 16L7 15L6 15L6 14L7 14L7 13L6 13L6 12L7 12L7 11ZM12 11L12 13L14 13L14 14L15 14L15 15L14 15L14 16L13 16L13 17L12 17L12 18L15 18L15 19L14 19L14 20L15 20L15 21L19 21L19 20L20 20L20 22L21 22L21 23L19 23L19 22L17 22L17 23L18 23L18 24L16 24L16 22L15 22L15 25L19 25L19 26L20 26L20 27L21 27L21 26L20 26L20 24L22 24L22 23L23 23L23 22L24 22L24 21L23 21L23 20L24 20L24 19L23 19L23 18L22 18L22 19L21 19L21 17L20 17L20 16L22 16L22 17L23 17L23 15L22 15L22 13L21 13L21 12L20 12L20 11L19 11L19 12L15 12L15 13L14 13L14 12L13 12L13 11ZM19 12L19 13L18 13L18 14L19 14L19 15L20 15L20 14L19 14L19 13L20 13L20 12ZM30 12L30 13L28 13L28 15L30 15L30 13L31 13L31 14L32 14L32 12ZM15 13L15 14L17 14L17 13ZM17 15L17 16L14 16L14 17L15 17L15 18L17 18L17 20L18 20L18 17L17 17L17 16L18 16L18 15ZM19 18L19 19L20 19L20 20L21 20L21 21L22 21L22 20L23 20L23 19L22 19L22 20L21 20L21 19L20 19L20 18ZM0 19L0 25L1 25L1 19ZM8 20L8 22L10 22L10 20ZM29 20L29 21L27 21L27 22L28 22L28 23L26 23L26 24L28 24L28 23L29 23L29 22L30 22L30 21L31 21L31 22L32 22L32 20ZM25 25L25 28L28 28L28 25ZM26 26L26 27L27 27L27 26ZM31 26L31 27L30 27L30 28L33 28L33 27L32 27L32 26ZM26 29L26 30L27 30L27 29ZM30 29L30 31L28 31L28 33L29 33L29 32L30 32L30 33L32 33L32 32L31 32L31 31L32 31L32 30L31 30L31 29ZM14 30L14 31L15 31L15 30ZM9 31L9 32L10 32L10 31ZM17 31L17 32L18 32L18 31ZM23 32L23 33L25 33L25 32ZM26 32L26 33L27 33L27 32ZM0 0L0 7L7 7L7 0ZM1 1L1 6L6 6L6 1ZM2 2L2 5L5 5L5 2ZM26 0L26 7L33 7L33 0ZM27 1L27 6L32 6L32 1ZM28 2L28 5L31 5L31 2ZM0 26L0 33L7 33L7 26ZM1 27L1 32L6 32L6 27ZM2 28L2 31L5 31L5 28Z" fill="#000000"/></g></g></svg>
