<?xml version="1.0" encoding="UTF-8"?>
<svg xmlns="http://www.w3.org/2000/svg" version="1.1" width="100" height="100" viewBox="0 0 100 100"><rect x="0" y="0" width="100" height="100" fill="#ffffff"/><g transform="scale(3.03)"><g transform="translate(0,0)"><path fill-rule="evenodd" d="M9 0L9 1L8 1L8 3L9 3L9 4L8 4L8 8L6 8L6 9L5 9L5 10L4 10L4 8L3 8L3 9L2 9L2 8L0 8L0 10L1 10L1 9L2 9L2 10L3 10L3 11L1 11L1 12L0 12L0 14L1 14L1 16L3 16L3 18L2 18L2 17L0 17L0 21L1 21L1 22L0 22L0 23L1 23L1 24L0 24L0 25L1 25L1 24L2 24L2 25L5 25L5 23L7 23L7 24L6 24L6 25L8 25L8 27L11 27L11 28L10 28L10 29L11 29L11 28L12 28L12 30L11 30L11 31L10 31L10 32L9 32L9 31L8 31L8 33L10 33L10 32L11 32L11 31L12 31L12 33L13 33L13 30L14 30L14 32L16 32L16 31L17 31L17 32L18 32L18 33L19 33L19 32L18 32L18 31L19 31L19 30L20 30L20 31L21 31L21 33L23 33L23 32L24 32L24 33L25 33L25 30L24 30L24 29L26 29L26 30L27 30L27 31L29 31L29 28L30 28L30 26L31 26L31 27L32 27L32 28L31 28L31 30L30 30L30 31L33 31L33 27L32 27L32 26L31 26L31 25L33 25L33 20L32 20L32 19L33 19L33 18L31 18L31 17L33 17L33 15L32 15L32 14L33 14L33 13L32 13L32 14L30 14L30 11L31 11L31 10L32 10L32 12L33 12L33 9L32 9L32 8L30 8L30 9L29 9L29 8L26 8L26 9L24 9L24 8L25 8L25 5L24 5L24 4L25 4L25 2L24 2L24 0L23 0L23 1L22 1L22 4L21 4L21 3L18 3L18 1L20 1L20 0L18 0L18 1L17 1L17 0L15 0L15 2L14 2L14 3L15 3L15 6L14 6L14 8L13 8L13 6L12 6L12 5L11 5L11 6L10 6L10 5L9 5L9 4L12 4L12 3L13 3L13 0L12 0L12 1L11 1L11 2L9 2L9 1L10 1L10 0ZM15 2L15 3L16 3L16 6L15 6L15 8L14 8L14 9L13 9L13 8L12 8L12 6L11 6L11 7L10 7L10 6L9 6L9 7L10 7L10 8L8 8L8 9L6 9L6 10L5 10L5 11L6 11L6 12L7 12L7 13L6 13L6 14L7 14L7 15L5 15L5 14L4 14L4 13L3 13L3 12L2 12L2 14L3 14L3 15L4 15L4 16L5 16L5 17L6 17L6 18L7 18L7 19L5 19L5 18L4 18L4 19L1 19L1 20L4 20L4 19L5 19L5 20L7 20L7 19L8 19L8 20L9 20L9 21L3 21L3 24L4 24L4 23L5 23L5 22L8 22L8 24L10 24L10 25L9 25L9 26L11 26L11 21L10 21L10 20L9 20L9 18L11 18L11 19L12 19L12 20L14 20L14 21L13 21L13 23L14 23L14 21L15 21L15 23L16 23L16 24L15 24L15 26L14 26L14 25L13 25L13 24L12 24L12 28L13 28L13 29L14 29L14 30L15 30L15 31L16 31L16 30L18 30L18 29L17 29L17 28L16 28L16 29L14 29L14 28L13 28L13 27L17 27L17 26L16 26L16 25L17 25L17 24L21 24L21 23L22 23L22 25L20 25L20 26L19 26L19 27L18 27L18 28L20 28L20 30L21 30L21 31L24 31L24 30L23 30L23 29L24 29L24 26L22 26L22 25L23 25L23 23L24 23L24 21L23 21L23 20L24 20L24 19L26 19L26 21L27 21L27 22L25 22L25 24L26 24L26 23L27 23L27 24L28 24L28 23L29 23L29 20L30 20L30 22L31 22L31 23L30 23L30 24L29 24L29 26L30 26L30 25L31 25L31 23L32 23L32 22L31 22L31 21L32 21L32 20L31 20L31 18L30 18L30 17L31 17L31 16L32 16L32 15L29 15L29 17L28 17L28 16L27 16L27 15L28 15L28 14L27 14L27 13L26 13L26 16L25 16L25 15L24 15L24 16L23 16L23 17L20 17L20 14L19 14L19 15L18 15L18 13L17 13L17 12L18 12L18 10L20 10L20 11L19 11L19 13L21 13L21 12L20 12L20 11L24 11L24 12L22 12L22 13L25 13L25 10L24 10L24 9L23 9L23 7L24 7L24 5L23 5L23 4L22 4L22 6L21 6L21 7L20 7L20 6L19 6L19 7L18 7L18 3L16 3L16 2ZM13 4L13 5L14 5L14 4ZM20 4L20 5L21 5L21 4ZM16 6L16 8L18 8L18 7L17 7L17 6ZM22 6L22 7L21 7L21 9L22 9L22 10L23 10L23 9L22 9L22 7L23 7L23 6ZM10 8L10 10L8 10L8 14L9 14L9 15L7 15L7 16L6 16L6 17L8 17L8 18L9 18L9 15L10 15L10 17L12 17L12 16L14 16L14 17L13 17L13 19L14 19L14 20L16 20L16 19L15 19L15 18L14 18L14 17L16 17L16 16L17 16L17 17L19 17L19 16L18 16L18 15L15 15L15 16L14 16L14 14L15 14L15 9L14 9L14 11L13 11L13 12L12 12L12 13L9 13L9 11L11 11L11 10L12 10L12 9L11 9L11 8ZM17 9L17 10L18 10L18 9ZM28 9L28 10L27 10L27 11L28 11L28 10L29 10L29 9ZM30 9L30 10L31 10L31 9ZM6 10L6 11L7 11L7 10ZM28 12L28 13L29 13L29 12ZM13 13L13 14L14 14L14 13ZM16 13L16 14L17 14L17 13ZM10 14L10 15L11 15L11 16L12 16L12 14ZM21 14L21 15L22 15L22 14ZM24 16L24 17L23 17L23 18L24 18L24 17L25 17L25 18L26 18L26 17L27 17L27 16L26 16L26 17L25 17L25 16ZM18 18L18 19L17 19L17 20L18 20L18 21L17 21L17 23L21 23L21 22L22 22L22 23L23 23L23 21L22 21L22 20L23 20L23 19L22 19L22 18L21 18L21 20L20 20L20 19L19 19L19 18ZM27 18L27 19L28 19L28 20L29 20L29 19L30 19L30 18ZM18 19L18 20L19 20L19 21L20 21L20 20L19 20L19 19ZM9 22L9 23L10 23L10 22ZM25 25L25 28L28 28L28 25ZM20 26L20 27L21 27L21 29L22 29L22 28L23 28L23 27L22 27L22 26ZM26 26L26 27L27 27L27 26ZM8 29L8 30L9 30L9 29ZM26 32L26 33L28 33L28 32ZM29 32L29 33L32 33L32 32ZM0 0L0 7L7 7L7 0ZM1 1L1 6L6 6L6 1ZM2 2L2 5L5 5L5 2ZM26 0L26 7L33 7L33 0ZM27 1L27 6L32 6L32 1ZM28 2L28 5L31 5L31 2ZM0 26L0 33L7 33L7 26ZM1 27L1 32L6 32L6 27ZM2 28L2 31L5 31L5 28Z" fill="#000000"/></g></g></svg>
