<?xml version="1.0" encoding="UTF-8"?>
<svg xmlns="http://www.w3.org/2000/svg" version="1.1" width="100" height="100" viewBox="0 0 100 100"><rect x="0" y="0" width="100" height="100" fill="#ffffff"/><g transform="scale(2.703)"><g transform="translate(0,0)"><path fill-rule="evenodd" d="M9 0L9 1L8 1L8 2L9 2L9 3L8 3L8 4L10 4L10 7L11 7L11 4L12 4L12 5L13 5L13 6L12 6L12 9L14 9L14 10L15 10L15 12L13 12L13 13L12 13L12 11L13 11L13 10L10 10L10 11L9 11L9 9L11 9L11 8L6 8L6 9L5 9L5 8L0 8L0 11L1 11L1 10L2 10L2 9L3 9L3 10L4 10L4 11L7 11L7 12L5 12L5 14L4 14L4 13L3 13L3 12L1 12L1 13L3 13L3 16L2 16L2 19L1 19L1 15L2 15L2 14L1 14L1 15L0 15L0 19L1 19L1 20L2 20L2 22L1 22L1 21L0 21L0 22L1 22L1 25L0 25L0 29L1 29L1 25L2 25L2 29L3 29L3 28L4 28L4 27L7 27L7 26L6 26L6 25L7 25L7 24L6 24L6 25L5 25L5 24L4 24L4 22L3 22L3 21L5 21L5 22L6 22L6 23L7 23L7 22L8 22L8 23L9 23L9 24L10 24L10 25L9 25L9 26L8 26L8 27L10 27L10 29L12 29L12 30L13 30L13 31L12 31L12 33L13 33L13 32L14 32L14 33L15 33L15 32L16 32L16 33L19 33L19 34L20 34L20 35L19 35L19 36L16 36L16 34L15 34L15 35L14 35L14 36L16 36L16 37L19 37L19 36L22 36L22 37L23 37L23 36L25 36L25 37L27 37L27 36L30 36L30 35L29 35L29 34L26 34L26 32L27 32L27 33L30 33L30 34L31 34L31 35L32 35L32 34L35 34L35 35L36 35L36 36L34 36L34 37L37 37L37 33L35 33L35 32L36 32L36 31L37 31L37 30L34 30L34 31L35 31L35 32L33 32L33 29L35 29L35 28L30 28L30 26L29 26L29 27L28 27L28 26L27 26L27 23L28 23L28 24L29 24L29 25L31 25L31 27L32 27L32 25L33 25L33 26L35 26L35 27L36 27L36 28L37 28L37 26L36 26L36 25L37 25L37 22L36 22L36 21L37 21L37 18L36 18L36 17L37 17L37 14L36 14L36 13L37 13L37 12L36 12L36 11L37 11L37 10L36 10L36 8L35 8L35 9L34 9L34 8L33 8L33 12L32 12L32 11L31 11L31 10L32 10L32 8L31 8L31 10L30 10L30 8L29 8L29 6L28 6L28 5L29 5L29 4L28 4L28 5L26 5L26 3L28 3L28 2L29 2L29 0L28 0L28 1L27 1L27 2L26 2L26 1L24 1L24 0L23 0L23 1L24 1L24 2L26 2L26 3L24 3L24 4L23 4L23 3L22 3L22 2L21 2L21 3L22 3L22 4L20 4L20 5L24 5L24 4L25 4L25 6L24 6L24 7L23 7L23 6L22 6L22 7L21 7L21 6L20 6L20 8L22 8L22 9L20 9L20 11L19 11L19 13L18 13L18 12L17 12L17 13L16 13L16 14L14 14L14 15L17 15L17 13L18 13L18 15L19 15L19 14L20 14L20 12L22 12L22 13L23 13L23 14L24 14L24 13L26 13L26 14L25 14L25 15L26 15L26 16L24 16L24 15L22 15L22 14L21 14L21 15L20 15L20 16L19 16L19 17L18 17L18 16L13 16L13 15L12 15L12 17L16 17L16 18L11 18L11 15L10 15L10 12L11 12L11 13L12 13L12 14L13 14L13 13L15 13L15 12L16 12L16 11L17 11L17 9L18 9L18 8L19 8L19 5L17 5L17 4L16 4L16 3L17 3L17 2L18 2L18 3L20 3L20 2L19 2L19 1L15 1L15 0L14 0L14 2L15 2L15 4L16 4L16 5L14 5L14 3L13 3L13 4L12 4L12 2L13 2L13 1L11 1L11 2L10 2L10 0ZM20 0L20 1L22 1L22 0ZM10 3L10 4L11 4L11 3ZM8 5L8 7L9 7L9 5ZM13 6L13 8L15 8L15 9L17 9L17 8L18 8L18 6L17 6L17 7L16 7L16 6L15 6L15 7L14 7L14 6ZM25 6L25 7L24 7L24 8L26 8L26 6ZM27 6L27 7L28 7L28 6ZM22 7L22 8L23 8L23 7ZM27 8L27 9L25 9L25 10L23 10L23 9L22 9L22 10L21 10L21 11L22 11L22 12L23 12L23 13L24 13L24 12L26 12L26 11L27 11L27 12L28 12L28 13L27 13L27 14L26 14L26 15L27 15L27 14L28 14L28 13L29 13L29 12L30 12L30 10L28 10L28 9L29 9L29 8ZM6 9L6 10L7 10L7 11L8 11L8 13L6 13L6 14L7 14L7 15L6 15L6 16L8 16L8 13L9 13L9 11L8 11L8 10L7 10L7 9ZM22 10L22 11L23 11L23 10ZM27 10L27 11L28 11L28 10ZM35 10L35 11L34 11L34 12L35 12L35 13L36 13L36 12L35 12L35 11L36 11L36 10ZM31 12L31 13L30 13L30 14L29 14L29 18L28 18L28 17L27 17L27 18L26 18L26 17L24 17L24 16L23 16L23 17L22 17L22 16L20 16L20 17L21 17L21 18L18 18L18 19L17 19L17 18L16 18L16 19L12 19L12 21L11 21L11 19L10 19L10 18L9 18L9 17L4 17L4 16L5 16L5 15L4 15L4 16L3 16L3 17L4 17L4 18L3 18L3 19L4 19L4 20L7 20L7 19L8 19L8 18L9 18L9 21L8 21L8 22L9 22L9 23L10 23L10 24L11 24L11 25L10 25L10 27L11 27L11 26L13 26L13 27L12 27L12 29L15 29L15 28L16 28L16 27L17 27L17 28L18 28L18 29L20 29L20 27L21 27L21 26L23 26L23 27L22 27L22 28L21 28L21 29L22 29L22 30L23 30L23 31L22 31L22 32L21 32L21 31L20 31L20 30L18 30L18 31L17 31L17 30L16 30L16 32L18 32L18 31L19 31L19 32L20 32L20 33L21 33L21 34L22 34L22 35L25 35L25 36L26 36L26 35L25 35L25 32L26 32L26 31L27 31L27 32L28 32L28 30L26 30L26 29L24 29L24 30L23 30L23 29L22 29L22 28L23 28L23 27L24 27L24 28L27 28L27 27L26 27L26 25L25 25L25 24L26 24L26 22L28 22L28 21L24 21L24 19L25 19L25 20L26 20L26 19L27 19L27 18L28 18L28 20L31 20L31 21L29 21L29 22L31 22L31 23L30 23L30 24L31 24L31 25L32 25L32 24L31 24L31 23L33 23L33 24L36 24L36 23L35 23L35 21L32 21L32 20L31 20L31 19L33 19L33 20L36 20L36 19L34 19L34 17L32 17L32 16L31 16L31 15L32 15L32 14L33 14L33 15L34 15L34 16L35 16L35 17L36 17L36 15L34 15L34 13L32 13L32 12ZM31 13L31 14L30 14L30 15L31 15L31 14L32 14L32 13ZM9 15L9 16L10 16L10 15ZM30 16L30 17L31 17L31 16ZM23 17L23 18L22 18L22 19L20 19L20 20L19 20L19 19L18 19L18 20L15 20L15 21L16 21L16 22L14 22L14 21L12 21L12 22L13 22L13 23L12 23L12 25L13 25L13 24L14 24L14 25L16 25L16 26L15 26L15 27L14 27L14 28L15 28L15 27L16 27L16 26L17 26L17 25L18 25L18 27L19 27L19 26L21 26L21 25L18 25L18 24L17 24L17 23L18 23L18 22L20 22L20 23L21 23L21 24L22 24L22 25L23 25L23 26L24 26L24 25L23 25L23 24L25 24L25 22L24 22L24 21L23 21L23 20L22 20L22 19L23 19L23 18L24 18L24 17ZM4 18L4 19L7 19L7 18ZM25 18L25 19L26 19L26 18ZM29 18L29 19L30 19L30 18ZM18 20L18 21L17 21L17 22L18 22L18 21L19 21L19 20ZM20 20L20 21L22 21L22 23L24 23L24 22L23 22L23 21L22 21L22 20ZM6 21L6 22L7 22L7 21ZM31 21L31 22L32 22L32 21ZM10 22L10 23L11 23L11 22ZM33 22L33 23L34 23L34 22ZM2 23L2 25L3 25L3 26L4 26L4 25L3 25L3 23ZM14 23L14 24L15 24L15 23ZM16 24L16 25L17 25L17 24ZM5 28L5 29L8 29L8 31L10 31L10 30L9 30L9 28ZM29 29L29 32L32 32L32 29ZM24 30L24 31L26 31L26 30ZM30 30L30 31L31 31L31 30ZM14 31L14 32L15 32L15 31ZM8 32L8 37L9 37L9 36L10 36L10 37L12 37L12 35L13 35L13 34L11 34L11 35L10 35L10 32ZM22 32L22 33L23 33L23 34L24 34L24 33L23 33L23 32ZM31 33L31 34L32 34L32 33ZM31 36L31 37L32 37L32 36ZM0 0L0 7L7 7L7 0ZM1 1L1 6L6 6L6 1ZM2 2L2 5L5 5L5 2ZM30 0L30 7L37 7L37 0ZM31 1L31 6L36 6L36 1ZM32 2L32 5L35 5L35 2ZM0 30L0 37L7 37L7 30ZM1 31L1 36L6 36L6 31ZM2 32L2 35L5 35L5 32Z" fill="#000000"/></g></g></svg>
