<?xml version="1.0" encoding="UTF-8"?>
<svg xmlns="http://www.w3.org/2000/svg" version="1.1" width="100" height="100" viewBox="0 0 100 100"><rect x="0" y="0" width="100" height="100" fill="#ffffff"/><g transform="scale(3.03)"><g transform="translate(0,0)"><path fill-rule="evenodd" d="M9 0L9 1L8 1L8 2L9 2L9 3L8 3L8 4L10 4L10 7L11 7L11 4L12 4L12 5L13 5L13 4L15 4L15 3L16 3L16 2L18 2L18 3L17 3L17 4L16 4L16 5L14 5L14 8L13 8L13 6L12 6L12 9L14 9L14 10L11 10L11 11L10 11L10 9L11 9L11 8L6 8L6 9L5 9L5 8L0 8L0 11L1 11L1 13L2 13L2 12L4 12L4 13L5 13L5 12L4 12L4 10L5 10L5 11L7 11L7 10L6 10L6 9L9 9L9 11L8 11L8 13L7 13L7 12L6 12L6 13L7 13L7 14L6 14L6 15L7 15L7 14L8 14L8 13L10 13L10 14L9 14L9 15L8 15L8 16L9 16L9 15L10 15L10 17L9 17L9 18L8 18L8 17L7 17L7 16L4 16L4 19L3 19L3 20L2 20L2 18L0 18L0 19L1 19L1 20L0 20L0 25L1 25L1 22L2 22L2 21L4 21L4 23L5 23L5 22L6 22L6 23L7 23L7 24L6 24L6 25L8 25L8 27L9 27L9 28L8 28L8 33L9 33L9 31L10 31L10 33L11 33L11 31L10 31L10 30L11 30L11 29L12 29L12 30L13 30L13 31L12 31L12 33L13 33L13 32L14 32L14 33L19 33L19 30L21 30L21 31L20 31L20 33L21 33L21 32L22 32L22 33L26 33L26 32L23 32L23 31L25 31L25 30L26 30L26 31L27 31L27 30L29 30L29 31L28 31L28 32L27 32L27 33L28 33L28 32L29 32L29 33L30 33L30 32L31 32L31 33L32 33L32 32L31 32L31 31L32 31L32 30L31 30L31 29L30 29L30 28L31 28L31 25L32 25L32 26L33 26L33 23L32 23L32 22L33 22L33 21L31 21L31 23L30 23L30 21L29 21L29 20L28 20L28 21L29 21L29 24L27 24L27 23L26 23L26 24L24 24L24 26L22 26L22 25L23 25L23 23L22 23L22 22L21 22L21 21L20 21L20 20L22 20L22 21L23 21L23 22L27 22L27 21L26 21L26 20L27 20L27 19L28 19L28 18L27 18L27 17L26 17L26 16L24 16L24 17L23 17L23 16L22 16L22 15L23 15L23 14L24 14L24 15L26 15L26 14L28 14L28 15L27 15L27 16L28 16L28 17L29 17L29 16L31 16L31 17L30 17L30 18L29 18L29 19L30 19L30 20L31 20L31 19L32 19L32 18L33 18L33 17L32 17L32 14L33 14L33 13L32 13L32 14L28 14L28 13L29 13L29 12L31 12L31 11L32 11L32 12L33 12L33 11L32 11L32 10L33 10L33 9L32 9L32 8L31 8L31 9L32 9L32 10L30 10L30 8L29 8L29 10L28 10L28 12L27 12L27 11L25 11L25 10L27 10L27 9L28 9L28 8L27 8L27 9L26 9L26 8L25 8L25 5L24 5L24 4L25 4L25 3L24 3L24 2L25 2L25 1L24 1L24 0L23 0L23 1L24 1L24 2L22 2L22 1L21 1L21 0L20 0L20 1L21 1L21 3L20 3L20 2L19 2L19 1L17 1L17 0L15 0L15 2L14 2L14 0L13 0L13 1L11 1L11 2L10 2L10 0ZM12 2L12 4L13 4L13 3L14 3L14 2ZM10 3L10 4L11 4L11 3ZM18 3L18 4L17 4L17 7L16 7L16 6L15 6L15 8L14 8L14 9L15 9L15 10L14 10L14 11L12 11L12 13L11 13L11 12L10 12L10 13L11 13L11 18L13 18L13 19L12 19L12 21L11 21L11 22L10 22L10 19L8 19L8 20L7 20L7 19L6 19L6 20L7 20L7 21L6 21L6 22L7 22L7 23L8 23L8 25L9 25L9 26L10 26L10 25L11 25L11 26L16 26L16 27L12 27L12 29L14 29L14 30L16 30L16 32L18 32L18 30L19 30L19 29L21 29L21 30L22 30L22 31L23 31L23 29L24 29L24 30L25 30L25 29L24 29L24 28L23 28L23 29L22 29L22 28L21 28L21 27L22 27L22 26L21 26L21 27L20 27L20 26L18 26L18 27L17 27L17 25L12 25L12 23L13 23L13 24L16 24L16 23L17 23L17 24L18 24L18 25L19 25L19 24L20 24L20 25L22 25L22 24L20 24L20 23L21 23L21 22L19 22L19 23L18 23L18 21L19 21L19 20L20 20L20 19L21 19L21 17L22 17L22 18L23 18L23 19L22 19L22 20L23 20L23 19L24 19L24 20L25 20L25 18L26 18L26 17L24 17L24 18L23 18L23 17L22 17L22 16L20 16L20 18L18 18L18 17L19 17L19 16L18 16L18 15L20 15L20 13L21 13L21 14L23 14L23 13L24 13L24 14L25 14L25 13L24 13L24 12L23 12L23 13L22 13L22 12L20 12L20 11L21 11L21 10L20 10L20 9L22 9L22 11L24 11L24 10L25 10L25 8L23 8L23 7L24 7L24 5L23 5L23 4L24 4L24 3L23 3L23 4L22 4L22 3L21 3L21 5L20 5L20 3ZM8 5L8 7L9 7L9 5ZM22 5L22 7L21 7L21 6L20 6L20 7L19 7L19 6L18 6L18 7L19 7L19 8L20 8L20 7L21 7L21 8L22 8L22 9L23 9L23 10L24 10L24 9L23 9L23 8L22 8L22 7L23 7L23 5ZM15 8L15 9L16 9L16 10L15 10L15 11L14 11L14 12L13 12L13 13L12 13L12 14L13 14L13 15L12 15L12 17L14 17L14 18L15 18L15 19L16 19L16 20L13 20L13 21L12 21L12 22L13 22L13 21L15 21L15 22L14 22L14 23L16 23L16 22L17 22L17 21L18 21L18 20L17 20L17 19L18 19L18 18L17 18L17 17L18 17L18 16L17 16L17 15L18 15L18 14L19 14L19 13L18 13L18 12L15 12L15 11L16 11L16 10L17 10L17 9L18 9L18 11L19 11L19 9L18 9L18 8ZM1 9L1 11L2 11L2 9ZM29 10L29 11L30 11L30 10ZM14 12L14 14L16 14L16 13L15 13L15 12ZM26 12L26 13L27 13L27 12ZM4 14L4 15L5 15L5 14ZM13 15L13 16L15 16L15 15ZM28 15L28 16L29 16L29 15ZM0 16L0 17L1 17L1 16ZM16 16L16 17L15 17L15 18L16 18L16 19L17 19L17 18L16 18L16 17L17 17L17 16ZM6 17L6 18L7 18L7 17ZM30 18L30 19L31 19L31 18ZM4 20L4 21L5 21L5 20ZM7 21L7 22L8 22L8 21ZM9 22L9 23L10 23L10 24L9 24L9 25L10 25L10 24L11 24L11 23L10 23L10 22ZM2 24L2 25L4 25L4 24ZM29 24L29 26L30 26L30 25L31 25L31 24ZM25 25L25 28L28 28L28 25ZM26 26L26 27L27 27L27 26ZM16 27L16 28L15 28L15 29L17 29L17 30L18 30L18 29L19 29L19 27L18 27L18 28L17 28L17 27ZM32 27L32 28L33 28L33 27ZM10 28L10 29L11 29L11 28ZM26 29L26 30L27 30L27 29ZM29 29L29 30L30 30L30 31L31 31L31 30L30 30L30 29ZM14 31L14 32L15 32L15 31ZM0 0L0 7L7 7L7 0ZM1 1L1 6L6 6L6 1ZM2 2L2 5L5 5L5 2ZM26 0L26 7L33 7L33 0ZM27 1L27 6L32 6L32 1ZM28 2L28 5L31 5L31 2ZM0 26L0 33L7 33L7 26ZM1 27L1 32L6 32L6 27ZM2 28L2 31L5 31L5 28Z" fill="#000000"/></g></g></svg>
