<?xml version="1.0" encoding="UTF-8"?>
<svg xmlns="http://www.w3.org/2000/svg" version="1.1" width="100" height="100" viewBox="0 0 100 100"><rect x="0" y="0" width="100" height="100" fill="#ffffff"/><g transform="scale(3.03)"><g transform="translate(0,0)"><path fill-rule="evenodd" d="M9 0L9 1L8 1L8 2L9 2L9 3L8 3L8 4L10 4L10 7L11 7L11 4L12 4L12 5L13 5L13 6L12 6L12 9L13 9L13 8L14 8L14 9L15 9L15 10L17 10L17 9L18 9L18 10L19 10L19 9L18 9L18 8L17 8L17 9L16 9L16 7L17 7L17 5L16 5L16 4L18 4L18 5L19 5L19 4L18 4L18 3L17 3L17 2L18 2L18 1L19 1L19 0L18 0L18 1L17 1L17 0L15 0L15 1L17 1L17 2L16 2L16 4L12 4L12 2L13 2L13 1L11 1L11 2L10 2L10 0ZM20 0L20 1L21 1L21 3L20 3L20 2L19 2L19 3L20 3L20 5L21 5L21 3L22 3L22 4L23 4L23 5L22 5L22 7L21 7L21 6L20 6L20 7L19 7L19 6L18 6L18 7L19 7L19 8L20 8L20 7L21 7L21 8L22 8L22 9L20 9L20 10L21 10L21 11L20 11L20 12L22 12L22 13L23 13L23 14L21 14L21 13L20 13L20 15L19 15L19 17L18 17L18 16L17 16L17 15L16 15L16 13L12 13L12 11L13 11L13 10L11 10L11 11L10 11L10 9L11 9L11 8L6 8L6 9L5 9L5 8L0 8L0 11L2 11L2 10L3 10L3 13L5 13L5 14L4 14L4 15L3 15L3 16L4 16L4 17L5 17L5 14L6 14L6 15L7 15L7 16L6 16L6 17L7 17L7 18L6 18L6 19L5 19L5 20L3 20L3 17L2 17L2 15L1 15L1 14L2 14L2 12L0 12L0 13L1 13L1 14L0 14L0 20L1 20L1 21L0 21L0 25L1 25L1 21L2 21L2 20L3 20L3 21L4 21L4 22L3 22L3 23L2 23L2 24L3 24L3 25L4 25L4 24L3 24L3 23L4 23L4 22L6 22L6 23L5 23L5 25L8 25L8 27L10 27L10 28L11 28L11 29L9 29L9 28L8 28L8 33L9 33L9 30L11 30L11 29L12 29L12 30L13 30L13 31L12 31L12 33L13 33L13 32L14 32L14 33L15 33L15 32L16 32L16 33L19 33L19 30L21 30L21 31L20 31L20 33L21 33L21 32L22 32L22 33L26 33L26 32L23 32L23 31L25 31L25 30L26 30L26 31L27 31L27 30L29 30L29 31L28 31L28 32L27 32L27 33L28 33L28 32L29 32L29 33L30 33L30 32L31 32L31 33L32 33L32 32L31 32L31 31L30 31L30 30L33 30L33 28L32 28L32 29L30 29L30 28L31 28L31 25L32 25L32 26L33 26L33 23L32 23L32 22L33 22L33 21L31 21L31 23L30 23L30 21L29 21L29 20L28 20L28 21L29 21L29 24L27 24L27 23L26 23L26 24L24 24L24 26L22 26L22 25L23 25L23 23L22 23L22 22L21 22L21 21L20 21L20 20L22 20L22 21L23 21L23 22L27 22L27 21L26 21L26 20L27 20L27 19L28 19L28 18L27 18L27 17L26 17L26 16L24 16L24 17L23 17L23 16L22 16L22 15L23 15L23 14L24 14L24 15L26 15L26 14L28 14L28 15L27 15L27 16L28 16L28 17L29 17L29 16L31 16L31 17L30 17L30 18L29 18L29 19L30 19L30 20L31 20L31 19L32 19L32 18L33 18L33 17L32 17L32 14L33 14L33 13L32 13L32 14L28 14L28 13L29 13L29 12L31 12L31 11L32 11L32 12L33 12L33 11L32 11L32 10L33 10L33 9L32 9L32 8L31 8L31 9L32 9L32 10L30 10L30 8L29 8L29 10L28 10L28 12L27 12L27 11L25 11L25 10L27 10L27 9L28 9L28 8L27 8L27 9L26 9L26 8L25 8L25 5L24 5L24 4L25 4L25 3L24 3L24 2L25 2L25 1L24 1L24 0L23 0L23 1L24 1L24 2L22 2L22 1L21 1L21 0ZM14 2L14 3L15 3L15 2ZM10 3L10 4L11 4L11 3ZM23 3L23 4L24 4L24 3ZM8 5L8 7L9 7L9 5ZM23 5L23 7L22 7L22 8L23 8L23 9L22 9L22 11L24 11L24 10L25 10L25 8L23 8L23 7L24 7L24 5ZM13 6L13 7L14 7L14 8L15 8L15 7L16 7L16 6L15 6L15 7L14 7L14 6ZM4 9L4 10L5 10L5 11L4 11L4 12L5 12L5 13L6 13L6 14L7 14L7 15L8 15L8 18L7 18L7 19L6 19L6 20L5 20L5 21L6 21L6 22L7 22L7 21L8 21L8 22L9 22L9 23L8 23L8 24L9 24L9 25L10 25L10 23L11 23L11 26L13 26L13 27L12 27L12 29L15 29L15 30L17 30L17 31L16 31L16 32L18 32L18 30L19 30L19 29L21 29L21 30L22 30L22 31L23 31L23 29L24 29L24 30L25 30L25 29L24 29L24 28L23 28L23 29L22 29L22 28L21 28L21 27L22 27L22 26L21 26L21 27L20 27L20 26L19 26L19 25L17 25L17 26L16 26L16 25L14 25L14 24L15 24L15 23L14 23L14 24L13 24L13 25L12 25L12 23L13 23L13 22L12 22L12 21L15 21L15 22L16 22L16 24L20 24L20 25L22 25L22 24L20 24L20 23L21 23L21 22L18 22L18 21L19 21L19 20L20 20L20 19L21 19L21 17L22 17L22 18L23 18L23 19L22 19L22 20L23 20L23 19L24 19L24 20L25 20L25 18L26 18L26 17L24 17L24 18L23 18L23 17L22 17L22 16L20 16L20 18L18 18L18 19L17 19L17 18L16 18L16 17L17 17L17 16L16 16L16 15L14 15L14 16L13 16L13 17L12 17L12 15L13 15L13 14L12 14L12 13L11 13L11 12L10 12L10 13L11 13L11 15L9 15L9 12L8 12L8 10L9 10L9 9L8 9L8 10L7 10L7 9L6 9L6 10L5 10L5 9ZM23 9L23 10L24 10L24 9ZM6 10L6 11L5 11L5 12L6 12L6 13L7 13L7 14L8 14L8 12L6 12L6 11L7 11L7 10ZM29 10L29 11L30 11L30 10ZM14 11L14 12L15 12L15 11ZM16 11L16 12L17 12L17 13L18 13L18 12L19 12L19 11L18 11L18 12L17 12L17 11ZM23 12L23 13L24 13L24 14L25 14L25 13L24 13L24 12ZM26 12L26 13L27 13L27 12ZM28 15L28 16L29 16L29 15ZM9 16L9 18L8 18L8 19L10 19L10 16ZM14 16L14 17L16 17L16 16ZM1 17L1 19L2 19L2 17ZM11 18L11 20L8 20L8 21L9 21L9 22L11 22L11 21L12 21L12 19L13 19L13 18ZM15 18L15 19L14 19L14 20L15 20L15 21L16 21L16 22L17 22L17 23L18 23L18 22L17 22L17 21L18 21L18 20L19 20L19 19L18 19L18 20L17 20L17 19L16 19L16 18ZM30 18L30 19L31 19L31 18ZM6 20L6 21L7 21L7 20ZM16 20L16 21L17 21L17 20ZM6 23L6 24L7 24L7 23ZM29 24L29 26L30 26L30 25L31 25L31 24ZM25 25L25 28L28 28L28 25ZM15 26L15 27L14 27L14 28L15 28L15 27L16 27L16 28L17 28L17 30L18 30L18 29L19 29L19 28L17 28L17 27L19 27L19 26L17 26L17 27L16 27L16 26ZM26 26L26 27L27 27L27 26ZM26 29L26 30L27 30L27 29ZM29 29L29 30L30 30L30 29ZM10 31L10 33L11 33L11 31ZM14 31L14 32L15 32L15 31ZM0 0L0 7L7 7L7 0ZM1 1L1 6L6 6L6 1ZM2 2L2 5L5 5L5 2ZM26 0L26 7L33 7L33 0ZM27 1L27 6L32 6L32 1ZM28 2L28 5L31 5L31 2ZM0 26L0 33L7 33L7 26ZM1 27L1 32L6 32L6 27ZM2 28L2 31L5 31L5 28Z" fill="#000000"/></g></g></svg>
