<?xml version="1.0" encoding="UTF-8"?>
<svg xmlns="http://www.w3.org/2000/svg" version="1.1" width="100" height="100" viewBox="0 0 100 100"><rect x="0" y="0" width="100" height="100" fill="#ffffff"/><g transform="scale(2.703)"><g transform="translate(0,0)"><path fill-rule="evenodd" d="M10 0L10 2L11 2L11 0ZM12 0L12 1L13 1L13 2L12 2L12 4L13 4L13 3L14 3L14 4L15 4L15 5L17 5L17 6L16 6L16 9L12 9L12 7L13 7L13 5L11 5L11 6L10 6L10 4L11 4L11 3L8 3L8 4L9 4L9 5L8 5L8 7L9 7L9 8L6 8L6 9L5 9L5 8L0 8L0 10L1 10L1 11L2 11L2 14L3 14L3 15L0 15L0 16L1 16L1 17L2 17L2 18L1 18L1 21L3 21L3 23L2 23L2 22L1 22L1 24L0 24L0 29L1 29L1 25L2 25L2 24L3 24L3 23L5 23L5 24L4 24L4 25L3 25L3 26L5 26L5 27L7 27L7 28L6 28L6 29L8 29L8 31L9 31L9 32L8 32L8 37L9 37L9 33L12 33L12 34L13 34L13 35L12 35L12 37L13 37L13 36L14 36L14 37L15 37L15 36L16 36L16 37L19 37L19 36L22 36L22 37L23 37L23 36L25 36L25 37L27 37L27 36L30 36L30 35L29 35L29 34L26 34L26 32L27 32L27 33L30 33L30 34L31 34L31 35L32 35L32 34L35 34L35 35L36 35L36 36L34 36L34 37L37 37L37 32L36 32L36 33L35 33L35 32L33 32L33 29L35 29L35 28L30 28L30 26L29 26L29 27L28 27L28 26L27 26L27 23L28 23L28 24L29 24L29 25L31 25L31 27L32 27L32 25L33 25L33 26L35 26L35 27L36 27L36 28L37 28L37 26L36 26L36 25L37 25L37 22L36 22L36 21L37 21L37 18L36 18L36 17L37 17L37 14L36 14L36 13L37 13L37 12L36 12L36 11L37 11L37 10L36 10L36 8L35 8L35 9L34 9L34 8L33 8L33 12L32 12L32 11L31 11L31 10L32 10L32 8L31 8L31 10L30 10L30 8L29 8L29 6L28 6L28 5L29 5L29 4L28 4L28 5L26 5L26 3L28 3L28 2L29 2L29 0L28 0L28 1L27 1L27 2L26 2L26 1L24 1L24 0L23 0L23 1L24 1L24 2L26 2L26 3L24 3L24 4L23 4L23 3L22 3L22 2L21 2L21 3L22 3L22 4L20 4L20 5L24 5L24 4L25 4L25 6L24 6L24 7L23 7L23 6L22 6L22 7L21 7L21 6L20 6L20 8L22 8L22 9L20 9L20 11L19 11L19 13L18 13L18 12L17 12L17 13L16 13L16 11L17 11L17 10L16 10L16 9L18 9L18 10L19 10L19 9L18 9L18 8L17 8L17 6L18 6L18 7L19 7L19 6L18 6L18 5L19 5L19 4L18 4L18 5L17 5L17 4L16 4L16 2L18 2L18 3L20 3L20 2L19 2L19 1L16 1L16 0ZM20 0L20 1L22 1L22 0ZM8 1L8 2L9 2L9 1ZM14 2L14 3L15 3L15 2ZM9 6L9 7L10 7L10 6ZM11 6L11 7L12 7L12 6ZM14 6L14 8L15 8L15 6ZM25 6L25 7L24 7L24 8L26 8L26 6ZM27 6L27 7L28 7L28 6ZM22 7L22 8L23 8L23 7ZM10 8L10 9L11 9L11 10L9 10L9 9L6 9L6 10L5 10L5 9L1 9L1 10L2 10L2 11L3 11L3 13L5 13L5 14L7 14L7 15L4 15L4 16L3 16L3 17L4 17L4 18L2 18L2 19L3 19L3 20L4 20L4 21L5 21L5 20L4 20L4 18L5 18L5 19L6 19L6 20L7 20L7 21L6 21L6 22L5 22L5 23L6 23L6 24L5 24L5 25L6 25L6 26L7 26L7 27L8 27L8 26L7 26L7 25L6 25L6 24L7 24L7 23L8 23L8 25L9 25L9 24L10 24L10 22L8 22L8 20L9 20L9 21L11 21L11 22L13 22L13 23L12 23L12 25L11 25L11 26L9 26L9 27L11 27L11 28L9 28L9 31L10 31L10 32L11 32L11 30L13 30L13 31L12 31L12 33L15 33L15 34L16 34L16 36L18 36L18 35L20 35L20 34L19 34L19 33L17 33L17 32L20 32L20 33L21 33L21 34L22 34L22 35L25 35L25 36L26 36L26 35L25 35L25 32L26 32L26 31L27 31L27 32L28 32L28 30L26 30L26 29L24 29L24 30L23 30L23 29L22 29L22 28L23 28L23 27L24 27L24 28L27 28L27 27L26 27L26 25L25 25L25 24L26 24L26 22L28 22L28 21L24 21L24 19L25 19L25 20L26 20L26 19L27 19L27 18L28 18L28 20L31 20L31 21L29 21L29 22L31 22L31 23L30 23L30 24L31 24L31 25L32 25L32 24L31 24L31 23L33 23L33 24L36 24L36 23L35 23L35 21L32 21L32 20L31 20L31 19L33 19L33 20L36 20L36 19L34 19L34 17L32 17L32 16L31 16L31 15L32 15L32 14L33 14L33 15L34 15L34 16L35 16L35 17L36 17L36 15L34 15L34 13L32 13L32 12L31 12L31 13L30 13L30 14L29 14L29 18L28 18L28 17L27 17L27 18L26 18L26 17L24 17L24 16L26 16L26 15L27 15L27 14L28 14L28 13L29 13L29 12L30 12L30 10L28 10L28 9L29 9L29 8L27 8L27 9L25 9L25 10L23 10L23 9L22 9L22 10L21 10L21 11L22 11L22 12L20 12L20 14L18 14L18 13L17 13L17 14L15 14L15 13L14 13L14 12L15 12L15 11L14 11L14 12L13 12L13 13L12 13L12 11L13 11L13 10L12 10L12 9L11 9L11 8ZM3 10L3 11L4 11L4 12L5 12L5 10ZM6 10L6 11L9 11L9 10ZM22 10L22 11L23 11L23 10ZM27 10L27 11L26 11L26 12L24 12L24 13L23 13L23 12L22 12L22 13L23 13L23 14L24 14L24 13L26 13L26 14L25 14L25 15L26 15L26 14L27 14L27 13L28 13L28 12L27 12L27 11L28 11L28 10ZM35 10L35 11L34 11L34 12L35 12L35 13L36 13L36 12L35 12L35 11L36 11L36 10ZM10 11L10 13L8 13L8 15L7 15L7 16L6 16L6 17L5 17L5 18L6 18L6 19L7 19L7 18L6 18L6 17L8 17L8 15L9 15L9 17L10 17L10 18L9 18L9 19L10 19L10 20L11 20L11 17L12 17L12 18L13 18L13 19L12 19L12 21L13 21L13 20L14 20L14 21L16 21L16 22L15 22L15 23L14 23L14 24L15 24L15 25L12 25L12 26L13 26L13 27L12 27L12 29L13 29L13 28L14 28L14 29L16 29L16 30L15 30L15 31L14 31L14 32L15 32L15 31L16 31L16 32L17 32L17 31L19 31L19 30L20 30L20 31L21 31L21 32L22 32L22 33L23 33L23 34L24 34L24 33L23 33L23 32L22 32L22 31L23 31L23 30L22 30L22 29L21 29L21 28L22 28L22 27L23 27L23 26L24 26L24 25L23 25L23 24L25 24L25 22L24 22L24 21L23 21L23 20L22 20L22 19L23 19L23 18L24 18L24 17L23 17L23 16L24 16L24 15L22 15L22 14L21 14L21 15L20 15L20 16L19 16L19 15L18 15L18 16L17 16L17 15L16 15L16 16L17 16L17 17L18 17L18 16L19 16L19 18L21 18L21 17L20 17L20 16L22 16L22 17L23 17L23 18L22 18L22 19L20 19L20 20L19 20L19 21L18 21L18 20L17 20L17 19L16 19L16 17L12 17L12 15L13 15L13 14L10 14L10 13L11 13L11 11ZM0 12L0 13L1 13L1 12ZM6 12L6 13L7 13L7 12ZM31 13L31 14L30 14L30 15L31 15L31 14L32 14L32 13ZM14 15L14 16L15 16L15 15ZM10 16L10 17L11 17L11 16ZM30 16L30 17L31 17L31 16ZM25 18L25 19L26 19L26 18ZM29 18L29 19L30 19L30 18ZM14 19L14 20L16 20L16 21L17 21L17 20L16 20L16 19ZM20 20L20 21L22 21L22 23L24 23L24 22L23 22L23 21L22 21L22 20ZM31 21L31 22L32 22L32 21ZM6 22L6 23L7 23L7 22ZM16 22L16 23L17 23L17 24L16 24L16 25L15 25L15 26L16 26L16 28L19 28L19 29L17 29L17 30L16 30L16 31L17 31L17 30L19 30L19 29L20 29L20 27L21 27L21 26L23 26L23 25L22 25L22 24L21 24L21 23L20 23L20 22L18 22L18 23L17 23L17 22ZM33 22L33 23L34 23L34 22ZM18 23L18 24L17 24L17 25L16 25L16 26L17 26L17 27L18 27L18 26L21 26L21 25L18 25L18 24L19 24L19 23ZM17 25L17 26L18 26L18 25ZM2 27L2 28L3 28L3 27ZM14 27L14 28L15 28L15 27ZM10 29L10 30L11 30L11 29ZM29 29L29 32L32 32L32 29ZM24 30L24 31L26 31L26 30ZM30 30L30 31L31 31L31 30ZM34 30L34 31L37 31L37 30ZM31 33L31 34L32 34L32 33ZM10 34L10 35L11 35L11 34ZM14 35L14 36L15 36L15 35ZM10 36L10 37L11 37L11 36ZM31 36L31 37L32 37L32 36ZM0 0L0 7L7 7L7 0ZM1 1L1 6L6 6L6 1ZM2 2L2 5L5 5L5 2ZM30 0L30 7L37 7L37 0ZM31 1L31 6L36 6L36 1ZM32 2L32 5L35 5L35 2ZM0 30L0 37L7 37L7 30ZM1 31L1 36L6 36L6 31ZM2 32L2 35L5 35L5 32Z" fill="#000000"/></g></g></svg>
