<?xml version="1.0" encoding="UTF-8"?>
<svg xmlns="http://www.w3.org/2000/svg" version="1.1" width="100" height="100" viewBox="0 0 100 100"><rect x="0" y="0" width="100" height="100" fill="#ffffff"/><g transform="scale(2.703)"><g transform="translate(0,0)"><path fill-rule="evenodd" d="M11 0L11 1L9 1L9 2L11 2L11 1L13 1L13 2L12 2L12 4L13 4L13 3L14 3L14 2L15 2L15 3L16 3L16 4L15 4L15 6L14 6L14 8L16 8L16 10L14 10L14 9L12 9L12 7L13 7L13 5L11 5L11 6L10 6L10 8L9 8L9 9L10 9L10 8L11 8L11 9L12 9L12 10L13 10L13 11L12 11L12 12L10 12L10 13L9 13L9 12L8 12L8 11L11 11L11 10L8 10L8 8L5 8L5 9L7 9L7 10L4 10L4 9L3 9L3 10L2 10L2 8L0 8L0 9L1 9L1 10L0 10L0 13L1 13L1 14L0 14L0 15L1 15L1 17L0 17L0 18L1 18L1 17L2 17L2 19L1 19L1 21L0 21L0 24L1 24L1 25L0 25L0 29L1 29L1 25L2 25L2 28L3 28L3 29L4 29L4 28L6 28L6 29L7 29L7 28L8 28L8 32L9 32L9 35L8 35L8 37L9 37L9 36L11 36L11 37L14 37L14 35L17 35L17 34L18 34L18 35L19 35L19 36L18 36L18 37L21 37L21 35L22 35L22 36L23 36L23 37L24 37L24 36L25 36L25 35L26 35L26 36L27 36L27 35L28 35L28 37L30 37L30 35L29 35L29 33L30 33L30 34L31 34L31 35L32 35L32 34L31 34L31 33L35 33L35 35L36 35L36 37L37 37L37 32L36 32L36 33L35 33L35 32L34 32L34 31L33 31L33 30L34 30L34 29L35 29L35 27L36 27L36 28L37 28L37 26L36 26L36 25L37 25L37 22L36 22L36 21L37 21L37 18L36 18L36 17L37 17L37 14L36 14L36 13L37 13L37 12L36 12L36 11L37 11L37 10L36 10L36 9L35 9L35 10L33 10L33 9L34 9L34 8L32 8L32 9L31 9L31 10L30 10L30 9L29 9L29 10L30 10L30 13L29 13L29 12L28 12L28 9L27 9L27 5L26 5L26 4L28 4L28 5L29 5L29 3L28 3L28 2L29 2L29 1L28 1L28 2L26 2L26 1L27 1L27 0L25 0L25 1L24 1L24 2L26 2L26 3L24 3L24 4L22 4L22 1L23 1L23 0L21 0L21 3L20 3L20 2L19 2L19 1L20 1L20 0L19 0L19 1L18 1L18 0L15 0L15 1L13 1L13 0ZM15 1L15 2L16 2L16 3L17 3L17 5L16 5L16 6L15 6L15 7L16 7L16 6L17 6L17 8L18 8L18 9L17 9L17 11L14 11L14 13L10 13L10 14L9 14L9 13L8 13L8 12L7 12L7 11L6 11L6 12L7 12L7 13L6 13L6 14L5 14L5 13L4 13L4 14L3 14L3 12L5 12L5 11L3 11L3 12L2 12L2 11L1 11L1 13L2 13L2 14L1 14L1 15L6 15L6 16L9 16L9 18L8 18L8 20L7 20L7 19L5 19L5 18L7 18L7 17L3 17L3 16L2 16L2 17L3 17L3 18L4 18L4 19L5 19L5 21L4 21L4 22L3 22L3 21L1 21L1 22L3 22L3 24L2 24L2 23L1 23L1 24L2 24L2 25L3 25L3 26L4 26L4 24L5 24L5 25L6 25L6 26L7 26L7 27L6 27L6 28L7 28L7 27L9 27L9 26L10 26L10 28L9 28L9 29L10 29L10 30L9 30L9 31L12 31L12 33L11 33L11 32L10 32L10 33L11 33L11 36L12 36L12 35L13 35L13 34L12 34L12 33L14 33L14 34L15 34L15 33L17 33L17 32L18 32L18 30L19 30L19 29L20 29L20 28L21 28L21 30L20 30L20 31L19 31L19 32L20 32L20 34L19 34L19 33L18 33L18 34L19 34L19 35L20 35L20 34L21 34L21 33L22 33L22 32L23 32L23 33L24 33L24 34L22 34L22 35L25 35L25 32L26 32L26 33L27 33L27 32L26 32L26 29L24 29L24 30L25 30L25 31L23 31L23 29L22 29L22 27L21 27L21 26L18 26L18 25L19 25L19 24L21 24L21 25L22 25L22 26L23 26L23 27L24 27L24 28L26 28L26 25L28 25L28 27L27 27L27 28L29 28L29 26L30 26L30 28L32 28L32 27L35 27L35 26L34 26L34 25L36 25L36 23L35 23L35 22L34 22L34 25L33 25L33 24L32 24L32 27L31 27L31 25L30 25L30 24L31 24L31 23L33 23L33 22L31 22L31 21L32 21L32 20L31 20L31 18L33 18L33 19L34 19L34 20L36 20L36 18L33 18L33 17L32 17L32 16L34 16L34 14L33 14L33 12L34 12L34 13L35 13L35 11L36 11L36 10L35 10L35 11L33 11L33 10L31 10L31 11L32 11L32 14L31 14L31 13L30 13L30 14L29 14L29 15L27 15L27 14L26 14L26 13L27 13L27 12L26 12L26 11L27 11L27 10L26 10L26 9L25 9L25 10L23 10L23 11L22 11L22 8L23 8L23 7L24 7L24 8L26 8L26 6L25 6L25 4L24 4L24 5L22 5L22 6L21 6L21 5L20 5L20 3L18 3L18 2L16 2L16 1ZM8 3L8 5L10 5L10 4L9 4L9 3ZM18 4L18 5L17 5L17 6L18 6L18 7L19 7L19 6L18 6L18 5L19 5L19 4ZM8 6L8 7L9 7L9 6ZM11 6L11 7L12 7L12 6ZM20 6L20 8L21 8L21 6ZM22 6L22 7L23 7L23 6ZM24 6L24 7L25 7L25 6ZM28 6L28 8L29 8L29 6ZM18 9L18 10L19 10L19 9ZM20 10L20 11L19 11L19 12L20 12L20 13L18 13L18 14L20 14L20 13L21 13L21 15L22 15L22 13L21 13L21 10ZM15 12L15 13L16 13L16 14L17 14L17 12ZM23 12L23 14L24 14L24 13L25 13L25 12ZM7 13L7 14L6 14L6 15L9 15L9 14L8 14L8 13ZM10 14L10 15L11 15L11 17L10 17L10 18L9 18L9 19L10 19L10 20L8 20L8 21L9 21L9 22L6 22L6 21L7 21L7 20L6 20L6 21L5 21L5 22L4 22L4 23L5 23L5 24L6 24L6 25L7 25L7 26L9 26L9 23L10 23L10 24L12 24L12 23L13 23L13 22L11 22L11 23L10 23L10 20L11 20L11 19L12 19L12 21L13 21L13 20L14 20L14 22L15 22L15 23L14 23L14 24L13 24L13 25L12 25L12 26L13 26L13 27L12 27L12 29L13 29L13 28L14 28L14 29L15 29L15 30L12 30L12 31L14 31L14 32L17 32L17 29L19 29L19 28L17 28L17 27L18 27L18 26L17 26L17 23L18 23L18 24L19 24L19 23L18 23L18 22L20 22L20 23L22 23L22 24L23 24L23 26L24 26L24 24L25 24L25 22L24 22L24 21L26 21L26 24L28 24L28 25L29 25L29 24L30 24L30 23L31 23L31 22L28 22L28 21L31 21L31 20L27 20L27 19L29 19L29 16L24 16L24 15L23 15L23 16L22 16L22 17L20 17L20 16L19 16L19 15L18 15L18 16L17 16L17 17L18 17L18 16L19 16L19 19L20 19L20 20L19 20L19 21L18 21L18 20L17 20L17 19L18 19L18 18L15 18L15 17L12 17L12 15L13 15L13 14ZM25 14L25 15L26 15L26 14ZM30 14L30 15L31 15L31 16L30 16L30 17L31 17L31 16L32 16L32 15L33 15L33 14L32 14L32 15L31 15L31 14ZM15 15L15 16L16 16L16 15ZM35 15L35 17L36 17L36 15ZM23 16L23 17L22 17L22 18L21 18L21 20L20 20L20 22L22 22L22 23L24 23L24 22L22 22L22 20L23 20L23 21L24 21L24 19L25 19L25 20L26 20L26 17L24 17L24 16ZM11 17L11 18L10 18L10 19L11 19L11 18L12 18L12 19L14 19L14 20L15 20L15 18L12 18L12 17ZM23 17L23 19L24 19L24 17ZM16 20L16 23L15 23L15 24L16 24L16 23L17 23L17 20ZM5 22L5 23L6 23L6 24L7 24L7 25L8 25L8 23L6 23L6 22ZM10 25L10 26L11 26L11 25ZM16 26L16 27L15 27L15 28L16 28L16 27L17 27L17 26ZM27 29L27 31L28 31L28 29ZM29 29L29 32L32 32L32 29ZM21 30L21 31L22 31L22 30ZM30 30L30 31L31 31L31 30ZM36 30L36 31L37 31L37 30ZM33 35L33 36L32 36L32 37L33 37L33 36L34 36L34 35ZM15 36L15 37L16 37L16 36ZM0 0L0 7L7 7L7 0ZM1 1L1 6L6 6L6 1ZM2 2L2 5L5 5L5 2ZM30 0L30 7L37 7L37 0ZM31 1L31 6L36 6L36 1ZM32 2L32 5L35 5L35 2ZM0 30L0 37L7 37L7 30ZM1 31L1 36L6 36L6 31ZM2 32L2 35L5 35L5 32Z" fill="#000000"/></g></g></svg>
