<?xml version="1.0" encoding="UTF-8"?>
<svg xmlns="http://www.w3.org/2000/svg" version="1.1" width="100" height="100" viewBox="0 0 100 100"><rect x="0" y="0" width="100" height="100" fill="#ffffff"/><g transform="scale(2.703)"><g transform="translate(0,0)"><path fill-rule="evenodd" d="M9 0L9 1L8 1L8 3L9 3L9 4L8 4L8 8L6 8L6 9L8 9L8 8L10 8L10 9L9 9L9 10L8 10L8 11L9 11L9 12L8 12L8 13L9 13L9 12L11 12L11 10L12 10L12 9L11 9L11 8L10 8L10 7L11 7L11 6L12 6L12 8L13 8L13 6L14 6L14 8L15 8L15 9L14 9L14 10L16 10L16 11L14 11L14 12L16 12L16 13L15 13L15 15L13 15L13 12L12 12L12 13L10 13L10 14L9 14L9 15L8 15L8 17L12 17L12 16L13 16L13 17L15 17L15 18L16 18L16 19L17 19L17 20L16 20L16 22L17 22L17 23L15 23L15 22L14 22L14 21L15 21L15 20L14 20L14 18L13 18L13 20L12 20L12 19L10 19L10 18L5 18L5 16L4 16L4 15L5 15L5 14L4 14L4 12L1 12L1 11L0 11L0 12L1 12L1 13L3 13L3 14L1 14L1 15L3 15L3 16L4 16L4 17L2 17L2 18L5 18L5 19L3 19L3 20L2 20L2 21L1 21L1 23L0 23L0 25L1 25L1 26L0 26L0 27L1 27L1 28L0 28L0 29L3 29L3 28L6 28L6 29L7 29L7 28L8 28L8 31L9 31L9 33L8 33L8 34L10 34L10 35L8 35L8 37L11 37L11 34L12 34L12 33L11 33L11 34L10 34L10 31L9 31L9 30L11 30L11 31L12 31L12 32L13 32L13 30L14 30L14 32L15 32L15 33L14 33L14 34L15 34L15 33L17 33L17 34L16 34L16 35L14 35L14 36L15 36L15 37L16 37L16 35L17 35L17 34L18 34L18 36L17 36L17 37L19 37L19 35L20 35L20 34L21 34L21 33L22 33L22 32L23 32L23 33L24 33L24 34L25 34L25 33L26 33L26 32L27 32L27 31L28 31L28 33L29 33L29 34L28 34L28 35L27 35L27 37L29 37L29 36L31 36L31 37L34 37L34 36L33 36L33 35L34 35L34 34L35 34L35 35L37 35L37 34L35 34L35 33L37 33L37 29L36 29L36 30L35 30L35 31L34 31L34 30L33 30L33 28L32 28L32 25L31 25L31 23L33 23L33 22L31 22L31 20L32 20L32 21L33 21L33 19L34 19L34 20L36 20L36 22L35 22L35 23L37 23L37 20L36 20L36 19L37 19L37 16L36 16L36 15L37 15L37 9L36 9L36 8L34 8L34 9L33 9L33 8L30 8L30 11L32 11L32 12L34 12L34 11L35 11L35 12L36 12L36 15L35 15L35 16L34 16L34 14L32 14L32 13L31 13L31 12L28 12L28 13L30 13L30 14L29 14L29 15L26 15L26 14L27 14L27 13L26 13L26 11L27 11L27 10L26 10L26 9L28 9L28 10L29 10L29 8L28 8L28 7L29 7L29 6L28 6L28 5L29 5L29 4L26 4L26 5L27 5L27 6L26 6L26 8L25 8L25 5L24 5L24 0L22 0L22 5L24 5L24 9L25 9L25 11L24 11L24 14L23 14L23 13L22 13L22 11L23 11L23 10L22 10L22 8L23 8L23 6L22 6L22 7L21 7L21 5L20 5L20 2L16 2L16 1L17 1L17 0L16 0L16 1L14 1L14 0L12 0L12 1L11 1L11 2L9 2L9 1L10 1L10 0ZM26 0L26 1L25 1L25 2L26 2L26 3L27 3L27 2L28 2L28 3L29 3L29 2L28 2L28 0ZM26 1L26 2L27 2L27 1ZM14 2L14 3L16 3L16 4L15 4L15 8L16 8L16 10L17 10L17 11L16 11L16 12L18 12L18 17L17 17L17 16L16 16L16 15L15 15L15 16L16 16L16 18L17 18L17 19L19 19L19 20L17 20L17 22L18 22L18 23L17 23L17 24L18 24L18 26L17 26L17 25L16 25L16 24L15 24L15 23L14 23L14 24L12 24L12 28L11 28L11 25L8 25L8 24L9 24L9 23L10 23L10 24L11 24L11 23L10 23L10 22L11 22L11 20L10 20L10 19L9 19L9 20L10 20L10 22L9 22L9 23L8 23L8 22L7 22L7 21L8 21L8 19L5 19L5 20L3 20L3 21L2 21L2 22L4 22L4 23L3 23L3 25L5 25L5 24L4 24L4 23L6 23L6 24L7 24L7 25L6 25L6 26L1 26L1 27L2 27L2 28L3 28L3 27L6 27L6 28L7 28L7 27L8 27L8 28L9 28L9 26L10 26L10 28L11 28L11 30L12 30L12 28L14 28L14 29L15 29L15 32L17 32L17 33L18 33L18 32L17 32L17 31L18 31L18 29L17 29L17 31L16 31L16 28L17 28L17 27L22 27L22 28L24 28L24 27L26 27L26 28L25 28L25 29L26 29L26 30L27 30L27 29L28 29L28 28L27 28L27 27L28 27L28 25L27 25L27 24L28 24L28 21L30 21L30 20L27 20L27 21L26 21L26 25L25 25L25 23L24 23L24 21L23 21L23 20L22 20L22 22L20 22L20 21L21 21L21 20L20 20L20 18L22 18L22 19L24 19L24 20L26 20L26 19L25 19L25 18L23 18L23 17L24 17L24 15L25 15L25 14L26 14L26 13L25 13L25 14L24 14L24 15L23 15L23 17L20 17L20 16L19 16L19 15L22 15L22 13L20 13L20 14L19 14L19 12L21 12L21 10L20 10L20 11L19 11L19 9L21 9L21 8L20 8L20 6L19 6L19 8L17 8L17 7L18 7L18 6L17 6L17 5L18 5L18 4L17 4L17 3L16 3L16 2ZM12 3L12 4L9 4L9 5L10 5L10 6L9 6L9 7L10 7L10 6L11 6L11 5L12 5L12 6L13 6L13 3ZM16 4L16 5L17 5L17 4ZM16 6L16 7L17 7L17 6ZM27 6L27 7L28 7L28 6ZM0 8L0 9L1 9L1 10L2 10L2 11L7 11L7 10L4 10L4 8L3 8L3 9L2 9L2 8ZM17 9L17 10L18 10L18 9ZM31 9L31 10L33 10L33 11L34 11L34 10L33 10L33 9ZM35 9L35 11L36 11L36 9ZM9 10L9 11L10 11L10 10ZM18 11L18 12L19 12L19 11ZM6 12L6 13L7 13L7 12ZM16 13L16 14L17 14L17 13ZM3 14L3 15L4 15L4 14ZM6 14L6 15L7 15L7 14ZM10 14L10 16L12 16L12 14ZM31 14L31 16L32 16L32 17L33 17L33 18L34 18L34 19L35 19L35 18L34 18L34 16L32 16L32 14ZM0 16L0 17L1 17L1 16ZM6 16L6 17L7 17L7 16ZM25 16L25 17L26 17L26 18L27 18L27 19L28 19L28 16ZM29 16L29 18L30 18L30 19L32 19L32 18L30 18L30 16ZM35 16L35 17L36 17L36 16ZM18 17L18 18L19 18L19 17ZM5 20L5 22L6 22L6 23L7 23L7 22L6 22L6 21L7 21L7 20ZM13 20L13 21L14 21L14 20ZM19 20L19 21L20 21L20 20ZM19 22L19 24L20 24L20 25L19 25L19 26L21 26L21 25L22 25L22 26L23 26L23 27L24 27L24 26L25 26L25 25L24 25L24 26L23 26L23 25L22 25L22 24L24 24L24 23L20 23L20 22ZM1 23L1 24L2 24L2 23ZM14 24L14 25L13 25L13 27L15 27L15 28L16 28L16 27L17 27L17 26L16 26L16 27L15 27L15 24ZM35 24L35 25L36 25L36 27L35 27L35 26L34 26L34 25L33 25L33 27L35 27L35 28L34 28L34 29L35 29L35 28L36 28L36 27L37 27L37 24ZM26 25L26 27L27 27L27 25ZM6 26L6 27L7 27L7 26ZM29 26L29 28L30 28L30 27L31 27L31 26ZM20 28L20 29L19 29L19 32L20 32L20 33L19 33L19 34L20 34L20 33L21 33L21 31L24 31L24 30L23 30L23 29L22 29L22 30L21 30L21 28ZM29 29L29 32L32 32L32 29ZM30 30L30 31L31 31L31 30ZM25 31L25 32L24 32L24 33L25 33L25 32L26 32L26 31ZM33 31L33 33L35 33L35 32L34 32L34 31ZM30 33L30 34L29 34L29 35L32 35L32 34L31 34L31 33ZM21 35L21 36L20 36L20 37L22 37L22 36L24 36L24 35ZM25 35L25 37L26 37L26 35ZM12 36L12 37L13 37L13 36ZM35 36L35 37L37 37L37 36ZM0 0L0 7L7 7L7 0ZM1 1L1 6L6 6L6 1ZM2 2L2 5L5 5L5 2ZM30 0L30 7L37 7L37 0ZM31 1L31 6L36 6L36 1ZM32 2L32 5L35 5L35 2ZM0 30L0 37L7 37L7 30ZM1 31L1 36L6 36L6 31ZM2 32L2 35L5 35L5 32Z" fill="#000000"/></g></g></svg>
