<?xml version="1.0" encoding="UTF-8"?>
<svg xmlns="http://www.w3.org/2000/svg" version="1.1" width="100" height="100" viewBox="0 0 100 100"><rect x="0" y="0" width="100" height="100" fill="#ffffff"/><g transform="scale(2.703)"><g transform="translate(0,0)"><path fill-rule="evenodd" d="M8 0L8 4L10 4L10 3L11 3L11 4L12 4L12 2L11 2L11 0ZM12 0L12 1L13 1L13 0ZM19 0L19 1L16 1L16 2L15 2L15 3L14 3L14 2L13 2L13 3L14 3L14 4L13 4L13 5L11 5L11 6L10 6L10 7L9 7L9 5L8 5L8 7L9 7L9 8L10 8L10 7L11 7L11 6L12 6L12 8L11 8L11 9L10 9L10 13L9 13L9 14L8 14L8 11L7 11L7 10L8 10L8 9L7 9L7 8L4 8L4 9L3 9L3 10L4 10L4 9L7 9L7 10L6 10L6 11L4 11L4 12L6 12L6 13L7 13L7 14L6 14L6 15L7 15L7 16L6 16L6 17L3 17L3 19L4 19L4 20L5 20L5 19L4 19L4 18L6 18L6 19L7 19L7 20L6 20L6 21L7 21L7 22L4 22L4 23L3 23L3 24L2 24L2 22L3 22L3 20L1 20L1 17L2 17L2 16L4 16L4 15L5 15L5 14L4 14L4 13L1 13L1 10L2 10L2 8L0 8L0 9L1 9L1 10L0 10L0 15L1 15L1 16L0 16L0 21L2 21L2 22L1 22L1 25L0 25L0 26L2 26L2 28L0 28L0 29L4 29L4 28L5 28L5 29L8 29L8 30L9 30L9 31L8 31L8 33L10 33L10 36L9 36L9 35L8 35L8 37L10 37L10 36L12 36L12 37L14 37L14 35L15 35L15 36L16 36L16 37L23 37L23 36L22 36L22 35L26 35L26 36L27 36L27 37L28 37L28 33L30 33L30 34L29 34L29 35L30 35L30 36L31 36L31 35L32 35L32 33L33 33L33 30L34 30L34 29L35 29L35 28L36 28L36 27L35 27L35 26L36 26L36 25L37 25L37 24L36 24L36 23L35 23L35 22L36 22L36 21L37 21L37 20L36 20L36 19L34 19L34 21L32 21L32 20L33 20L33 19L31 19L31 18L36 18L36 17L37 17L37 16L36 16L36 15L33 15L33 14L36 14L36 13L37 13L37 11L36 11L36 9L37 9L37 8L33 8L33 9L32 9L32 8L31 8L31 9L32 9L32 10L33 10L33 12L34 12L34 13L32 13L32 11L31 11L31 12L30 12L30 9L28 9L28 7L29 7L29 6L28 6L28 7L27 7L27 6L26 6L26 8L27 8L27 9L25 9L25 6L24 6L24 8L23 8L23 6L22 6L22 5L24 5L24 3L25 3L25 4L26 4L26 5L29 5L29 0L25 0L25 1L24 1L24 0L23 0L23 1L24 1L24 2L22 2L22 1L20 1L20 0ZM25 1L25 3L26 3L26 4L28 4L28 3L26 3L26 1ZM27 1L27 2L28 2L28 1ZM9 2L9 3L10 3L10 2ZM18 2L18 3L19 3L19 4L20 4L20 5L22 5L22 4L23 4L23 3L21 3L21 2L20 2L20 3L19 3L19 2ZM15 4L15 5L16 5L16 6L15 6L15 8L17 8L17 7L18 7L18 6L19 6L19 8L18 8L18 9L13 9L13 8L14 8L14 6L13 6L13 8L12 8L12 9L11 9L11 10L12 10L12 9L13 9L13 10L16 10L16 11L17 11L17 10L18 10L18 9L19 9L19 8L20 8L20 6L19 6L19 5L18 5L18 4L17 4L17 5L16 5L16 4ZM17 5L17 6L16 6L16 7L17 7L17 6L18 6L18 5ZM21 6L21 7L22 7L22 6ZM20 9L20 10L19 10L19 11L20 11L20 10L21 10L21 11L23 11L23 9ZM33 9L33 10L34 10L34 11L35 11L35 13L36 13L36 11L35 11L35 10L34 10L34 9ZM25 10L25 13L24 13L24 12L23 12L23 13L22 13L22 14L23 14L23 13L24 13L24 14L25 14L25 13L26 13L26 15L25 15L25 17L24 17L24 15L22 15L22 16L23 16L23 17L22 17L22 18L21 18L21 17L20 17L20 15L21 15L21 14L20 14L20 12L18 12L18 13L17 13L17 12L15 12L15 11L14 11L14 13L15 13L15 14L13 14L13 13L12 13L12 12L13 12L13 11L12 11L12 12L11 12L11 14L10 14L10 15L11 15L11 16L10 16L10 17L11 17L11 18L12 18L12 17L13 17L13 18L19 18L19 20L18 20L18 21L19 21L19 23L18 23L18 22L17 22L17 23L16 23L16 24L15 24L15 25L13 25L13 24L14 24L14 23L15 23L15 22L13 22L13 21L12 21L12 20L13 20L13 19L12 19L12 20L11 20L11 19L10 19L10 18L9 18L9 17L8 17L8 16L9 16L9 15L8 15L8 16L7 16L7 17L6 17L6 18L9 18L9 19L10 19L10 20L7 20L7 21L11 21L11 24L10 24L10 25L8 25L8 26L7 26L7 25L6 25L6 24L7 24L7 23L6 23L6 24L5 24L5 23L4 23L4 24L5 24L5 25L4 25L4 26L3 26L3 27L4 27L4 26L7 26L7 27L6 27L6 28L9 28L9 27L8 27L8 26L12 26L12 25L13 25L13 26L15 26L15 25L17 25L17 27L18 27L18 25L19 25L19 28L20 28L20 29L17 29L17 30L18 30L18 31L19 31L19 33L17 33L17 31L15 31L15 30L13 30L13 29L12 29L12 28L13 28L13 27L12 27L12 28L11 28L11 27L10 27L10 29L9 29L9 30L10 30L10 32L12 32L12 33L11 33L11 34L12 34L12 33L13 33L13 34L15 34L15 33L13 33L13 32L14 32L14 31L15 31L15 32L16 32L16 36L17 36L17 34L19 34L19 35L18 35L18 36L19 36L19 35L20 35L20 34L21 34L21 33L20 33L20 32L21 32L21 31L20 31L20 30L22 30L22 31L23 31L23 29L21 29L21 28L20 28L20 27L21 27L21 25L19 25L19 24L21 24L21 23L20 23L20 22L23 22L23 21L24 21L24 23L22 23L22 24L23 24L23 25L22 25L22 27L23 27L23 28L24 28L24 27L23 27L23 25L24 25L24 26L25 26L25 29L24 29L24 31L25 31L25 32L23 32L23 33L22 33L22 34L23 34L23 33L24 33L24 34L26 34L26 31L27 31L27 33L28 33L28 28L30 28L30 26L32 26L32 27L31 27L31 28L33 28L33 29L34 29L34 23L33 23L33 22L32 22L32 21L29 21L29 22L28 22L28 23L27 23L27 24L26 24L26 22L25 22L25 21L28 21L28 20L26 20L26 19L27 19L27 17L28 17L28 16L29 16L29 19L30 19L30 18L31 18L31 17L30 17L30 16L29 16L29 14L28 14L28 16L26 16L26 15L27 15L27 13L29 13L29 12L28 12L28 11L27 11L27 10ZM2 11L2 12L3 12L3 11ZM6 11L6 12L7 12L7 11ZM26 11L26 12L27 12L27 11ZM16 13L16 15L17 15L17 17L18 17L18 15L19 15L19 13L18 13L18 14L17 14L17 13ZM30 13L30 15L32 15L32 13ZM1 14L1 15L3 15L3 14ZM12 15L12 16L11 16L11 17L12 17L12 16L13 16L13 17L16 17L16 16L15 16L15 15L14 15L14 16L13 16L13 15ZM32 16L32 17L34 17L34 16ZM35 16L35 17L36 17L36 16ZM23 17L23 19L20 19L20 21L23 21L23 20L24 20L24 21L25 21L25 20L24 20L24 19L26 19L26 17L25 17L25 18L24 18L24 17ZM14 19L14 21L17 21L17 19ZM34 21L34 22L35 22L35 21ZM9 22L9 23L8 23L8 24L9 24L9 23L10 23L10 22ZM12 23L12 24L11 24L11 25L12 25L12 24L13 24L13 23ZM17 23L17 25L18 25L18 23ZM30 23L30 24L29 24L29 25L32 25L32 26L33 26L33 25L32 25L32 24L33 24L33 23ZM27 24L27 26L26 26L26 25L25 25L25 26L26 26L26 27L27 27L27 28L28 28L28 27L29 27L29 26L28 26L28 24ZM14 27L14 29L16 29L16 28L15 28L15 27ZM10 29L10 30L11 30L11 29ZM25 29L25 31L26 31L26 29ZM29 29L29 32L32 32L32 29ZM30 30L30 31L31 31L31 30ZM12 31L12 32L13 32L13 31ZM34 31L34 36L32 36L32 37L37 37L37 36L36 36L36 35L35 35L35 34L37 34L37 31ZM35 32L35 33L36 33L36 32ZM12 35L12 36L13 36L13 35ZM0 0L0 7L7 7L7 0ZM1 1L1 6L6 6L6 1ZM2 2L2 5L5 5L5 2ZM30 0L30 7L37 7L37 0ZM31 1L31 6L36 6L36 1ZM32 2L32 5L35 5L35 2ZM0 30L0 37L7 37L7 30ZM1 31L1 36L6 36L6 31ZM2 32L2 35L5 35L5 32Z" fill="#000000"/></g></g></svg>
