<?xml version="1.0" encoding="UTF-8"?>
<svg xmlns="http://www.w3.org/2000/svg" version="1.1" width="100" height="100" viewBox="0 0 100 100"><rect x="0" y="0" width="100" height="100" fill="#ffffff"/><g transform="scale(2.703)"><g transform="translate(0,0)"><path fill-rule="evenodd" d="M8 0L8 1L9 1L9 2L10 2L10 3L11 3L11 1L13 1L13 0L11 0L11 1L9 1L9 0ZM15 0L15 1L16 1L16 2L15 2L15 3L16 3L16 4L14 4L14 5L15 5L15 6L14 6L14 7L13 7L13 5L12 5L12 4L13 4L13 2L12 2L12 4L11 4L11 5L10 5L10 4L9 4L9 5L10 5L10 8L9 8L9 6L8 6L8 8L9 8L9 9L12 9L12 10L11 10L11 11L10 11L10 10L9 10L9 11L8 11L8 10L6 10L6 9L7 9L7 8L6 8L6 9L5 9L5 8L3 8L3 9L2 9L2 8L0 8L0 9L2 9L2 10L0 10L0 11L1 11L1 12L0 12L0 13L1 13L1 12L2 12L2 13L3 13L3 14L0 14L0 15L1 15L1 16L0 16L0 18L3 18L3 20L4 20L4 19L7 19L7 18L9 18L9 19L8 19L8 20L5 20L5 21L9 21L9 22L11 22L11 21L9 21L9 20L10 20L10 18L11 18L11 19L12 19L12 21L14 21L14 24L13 24L13 25L12 25L12 26L13 26L13 25L15 25L15 26L14 26L14 27L12 27L12 28L10 28L10 27L11 27L11 25L10 25L10 26L9 26L9 29L8 29L8 26L6 26L6 25L8 25L8 24L6 24L6 23L8 23L8 22L1 22L1 21L2 21L2 19L1 19L1 20L0 20L0 24L1 24L1 25L0 25L0 29L1 29L1 27L3 27L3 28L2 28L2 29L3 29L3 28L4 28L4 29L5 29L5 28L4 28L4 27L3 27L3 26L6 26L6 27L7 27L7 28L6 28L6 29L8 29L8 30L10 30L10 31L9 31L9 32L8 32L8 34L9 34L9 35L8 35L8 37L9 37L9 36L10 36L10 35L11 35L11 37L14 37L14 31L15 31L15 32L16 32L16 33L15 33L15 35L17 35L17 36L18 36L18 37L21 37L21 35L22 35L22 34L23 34L23 35L24 35L24 36L23 36L23 37L24 37L24 36L25 36L25 35L26 35L26 36L27 36L27 35L30 35L30 34L31 34L31 35L33 35L33 36L32 36L32 37L33 37L33 36L36 36L36 37L37 37L37 32L36 32L36 33L35 33L35 34L36 34L36 35L33 35L33 34L31 34L31 33L34 33L34 31L33 31L33 30L36 30L36 31L37 31L37 30L36 30L36 28L37 28L37 26L36 26L36 25L37 25L37 22L36 22L36 21L37 21L37 18L36 18L36 20L35 20L35 21L34 21L34 19L33 19L33 18L34 18L34 17L37 17L37 14L36 14L36 13L37 13L37 12L35 12L35 11L37 11L37 10L36 10L36 9L37 9L37 8L36 8L36 9L35 9L35 10L33 10L33 9L31 9L31 8L30 8L30 9L29 9L29 1L28 1L28 2L27 2L27 0L25 0L25 1L24 1L24 2L25 2L25 3L24 3L24 4L25 4L25 6L24 6L24 5L23 5L23 4L22 4L22 3L23 3L23 2L22 2L22 1L23 1L23 0L21 0L21 1L20 1L20 0L19 0L19 1L18 1L18 0ZM25 1L25 2L26 2L26 1ZM17 2L17 4L19 4L19 5L17 5L17 8L15 8L15 7L16 7L16 6L15 6L15 7L14 7L14 13L15 13L15 14L14 14L14 15L12 15L12 16L11 16L11 17L14 17L14 16L15 16L15 18L12 18L12 19L13 19L13 20L14 20L14 19L15 19L15 18L16 18L16 17L18 17L18 19L17 19L17 20L18 20L18 21L20 21L20 22L17 22L17 21L16 21L16 23L15 23L15 24L17 24L17 26L18 26L18 27L17 27L17 29L16 29L16 30L17 30L17 29L18 29L18 31L17 31L17 32L19 32L19 33L17 33L17 35L21 35L21 33L24 33L24 35L25 35L25 33L27 33L27 31L28 31L28 29L27 29L27 28L29 28L29 27L27 27L27 28L26 28L26 27L25 27L25 25L26 25L26 26L27 26L27 25L28 25L28 26L30 26L30 28L32 28L32 27L34 27L34 25L36 25L36 24L34 24L34 25L33 25L33 24L32 24L32 25L30 25L30 24L31 24L31 23L32 23L32 22L31 22L31 21L29 21L29 20L33 20L33 19L31 19L31 18L33 18L33 16L34 16L34 15L35 15L35 16L36 16L36 15L35 15L35 14L33 14L33 15L32 15L32 16L31 16L31 15L30 15L30 14L32 14L32 13L33 13L33 12L34 12L34 13L35 13L35 12L34 12L34 11L32 11L32 10L31 10L31 9L30 9L30 10L31 10L31 11L32 11L32 13L30 13L30 12L29 12L29 13L30 13L30 14L28 14L28 15L27 15L27 12L26 12L26 8L27 8L27 9L28 9L28 11L29 11L29 9L28 9L28 4L27 4L27 7L26 7L26 6L25 6L25 7L24 7L24 6L23 6L23 7L22 7L22 6L21 6L21 4L20 4L20 3L21 3L21 2L19 2L19 3L18 3L18 2ZM11 5L11 7L12 7L12 9L13 9L13 7L12 7L12 5ZM18 6L18 7L19 7L19 9L18 9L18 8L17 8L17 9L16 9L16 10L15 10L15 11L16 11L16 12L15 12L15 13L16 13L16 15L15 15L15 16L16 16L16 15L17 15L17 12L18 12L18 10L19 10L19 9L20 9L20 7L21 7L21 6L20 6L20 7L19 7L19 6ZM23 7L23 9L22 9L22 12L23 12L23 14L22 14L22 13L21 13L21 11L19 11L19 12L20 12L20 14L19 14L19 13L18 13L18 14L19 14L19 15L18 15L18 16L19 16L19 20L20 20L20 19L21 19L21 18L23 18L23 19L24 19L24 21L22 21L22 22L21 22L21 23L22 23L22 22L23 22L23 23L24 23L24 24L23 24L23 26L24 26L24 24L25 24L25 22L24 22L24 21L25 21L25 20L26 20L26 22L27 22L27 23L26 23L26 24L28 24L28 25L29 25L29 24L28 24L28 23L29 23L29 22L28 22L28 20L26 20L26 19L29 19L29 18L30 18L30 17L31 17L31 16L27 16L27 17L26 17L26 16L24 16L24 15L23 15L23 14L24 14L24 13L25 13L25 14L26 14L26 13L25 13L25 12L24 12L24 10L25 10L25 8L26 8L26 7L25 7L25 8L24 8L24 7ZM3 9L3 11L2 11L2 12L3 12L3 13L4 13L4 14L7 14L7 13L9 13L9 14L8 14L8 17L10 17L10 16L9 16L9 15L11 15L11 14L13 14L13 13L11 13L11 12L10 12L10 11L9 11L9 12L7 12L7 11L6 11L6 12L5 12L5 10L4 10L4 9ZM17 9L17 10L18 10L18 9ZM12 10L12 11L13 11L13 10ZM4 12L4 13L5 13L5 12ZM6 12L6 13L7 13L7 12ZM9 12L9 13L10 13L10 14L11 14L11 13L10 13L10 12ZM20 14L20 15L19 15L19 16L21 16L21 17L22 17L22 16L23 16L23 15L21 15L21 14ZM6 15L6 16L5 16L5 17L4 17L4 16L3 16L3 17L4 17L4 18L5 18L5 17L6 17L6 18L7 18L7 17L6 17L6 16L7 16L7 15ZM1 16L1 17L2 17L2 16ZM23 17L23 18L24 18L24 19L26 19L26 17ZM28 17L28 18L29 18L29 17ZM12 22L12 23L13 23L13 22ZM30 22L30 23L31 23L31 22ZM34 22L34 23L36 23L36 22ZM4 23L4 25L6 25L6 24L5 24L5 23ZM9 23L9 24L11 24L11 23ZM17 23L17 24L19 24L19 25L18 25L18 26L19 26L19 27L20 27L20 26L19 26L19 25L21 25L21 27L22 27L22 30L21 30L21 29L19 29L19 28L18 28L18 29L19 29L19 32L21 32L21 31L22 31L22 30L23 30L23 31L25 31L25 32L26 32L26 31L27 31L27 29L26 29L26 28L24 28L24 27L22 27L22 25L21 25L21 24L19 24L19 23ZM2 24L2 25L3 25L3 24ZM32 25L32 26L33 26L33 25ZM15 27L15 28L13 28L13 29L12 29L12 30L11 30L11 29L10 29L10 30L11 30L11 31L12 31L12 33L11 33L11 32L10 32L10 33L9 33L9 34L10 34L10 33L11 33L11 34L12 34L12 35L13 35L13 34L12 34L12 33L13 33L13 31L12 31L12 30L15 30L15 28L16 28L16 27ZM35 27L35 28L36 28L36 27ZM23 28L23 30L25 30L25 31L26 31L26 29L24 29L24 28ZM29 29L29 32L32 32L32 29ZM20 30L20 31L21 31L21 30ZM30 30L30 31L31 31L31 30ZM19 33L19 34L20 34L20 33ZM29 33L29 34L30 34L30 33ZM26 34L26 35L27 35L27 34ZM15 36L15 37L16 37L16 36ZM28 36L28 37L30 37L30 36ZM0 0L0 7L7 7L7 0ZM1 1L1 6L6 6L6 1ZM2 2L2 5L5 5L5 2ZM30 0L30 7L37 7L37 0ZM31 1L31 6L36 6L36 1ZM32 2L32 5L35 5L35 2ZM0 30L0 37L7 37L7 30ZM1 31L1 36L6 36L6 31ZM2 32L2 35L5 35L5 32Z" fill="#000000"/></g></g></svg>
