<?xml version="1.0" encoding="UTF-8"?>
<svg xmlns="http://www.w3.org/2000/svg" version="1.1" width="100" height="100" viewBox="0 0 100 100"><rect x="0" y="0" width="100" height="100" fill="#ffffff"/><g transform="scale(3.03)"><g transform="translate(0,0)"><path fill-rule="evenodd" d="M9 0L9 1L8 1L8 2L9 2L9 3L8 3L8 4L10 4L10 7L11 7L11 4L12 4L12 5L13 5L13 4L14 4L14 5L15 5L15 6L14 6L14 8L13 8L13 6L12 6L12 9L14 9L14 10L15 10L15 12L17 12L17 10L15 10L15 9L18 9L18 12L19 12L19 10L21 10L21 11L20 11L20 13L19 13L19 14L18 14L18 16L17 16L17 15L16 15L16 14L14 14L14 13L12 13L12 11L13 11L13 10L11 10L11 11L10 11L10 9L11 9L11 8L6 8L6 9L5 9L5 8L0 8L0 10L1 10L1 9L2 9L2 11L1 11L1 12L0 12L0 13L1 13L1 14L0 14L0 15L1 15L1 16L0 16L0 17L1 17L1 16L2 16L2 15L1 15L1 14L3 14L3 16L4 16L4 17L5 17L5 18L3 18L3 20L2 20L2 18L1 18L1 19L0 19L0 25L1 25L1 21L3 21L3 20L4 20L4 22L2 22L2 23L4 23L4 22L5 22L5 21L7 21L7 20L6 20L6 19L8 19L8 18L6 18L6 17L8 17L8 16L9 16L9 18L10 18L10 19L9 19L9 20L10 20L10 21L8 21L8 22L11 22L11 21L12 21L12 22L13 22L13 23L12 23L12 25L13 25L13 24L14 24L14 25L18 25L18 27L19 27L19 26L21 26L21 27L20 27L20 28L24 28L24 31L25 31L25 32L24 32L24 33L29 33L29 32L31 32L31 33L32 33L32 32L31 32L31 31L30 31L30 30L33 30L33 27L32 27L32 25L31 25L31 27L29 27L29 26L30 26L30 25L29 25L29 24L31 24L31 23L32 23L32 22L33 22L33 21L32 21L32 18L33 18L33 15L32 15L32 14L33 14L33 13L32 13L32 14L31 14L31 13L29 13L29 12L32 12L32 10L33 10L33 9L32 9L32 8L31 8L31 9L32 9L32 10L31 10L31 11L29 11L29 10L30 10L30 8L29 8L29 10L28 10L28 8L27 8L27 9L26 9L26 8L25 8L25 6L24 6L24 9L23 9L23 10L21 10L21 8L23 8L23 5L24 5L24 4L25 4L25 3L24 3L24 2L25 2L25 1L24 1L24 0L19 0L19 1L21 1L21 3L22 3L22 4L23 4L23 5L22 5L22 7L21 7L21 4L20 4L20 2L19 2L19 4L18 4L18 3L17 3L17 1L14 1L14 0L13 0L13 1L11 1L11 2L10 2L10 0ZM13 1L13 2L12 2L12 4L13 4L13 3L14 3L14 4L15 4L15 5L16 5L16 6L15 6L15 7L16 7L16 8L19 8L19 9L20 9L20 5L19 5L19 7L18 7L18 5L17 5L17 4L15 4L15 3L16 3L16 2L15 2L15 3L14 3L14 1ZM23 1L23 2L22 2L22 3L23 3L23 2L24 2L24 1ZM10 3L10 4L11 4L11 3ZM8 5L8 7L9 7L9 5ZM16 6L16 7L17 7L17 6ZM14 8L14 9L15 9L15 8ZM3 9L3 12L1 12L1 13L3 13L3 14L4 14L4 15L5 15L5 16L7 16L7 15L5 15L5 14L4 14L4 13L5 13L5 12L8 12L8 13L6 13L6 14L8 14L8 13L9 13L9 12L8 12L8 11L9 11L9 10L8 10L8 11L5 11L5 9ZM6 9L6 10L7 10L7 9ZM24 9L24 10L23 10L23 11L22 11L22 12L21 12L21 13L22 13L22 16L23 16L23 17L24 17L24 18L21 18L21 19L20 19L20 18L19 18L19 19L18 19L18 17L21 17L21 16L20 16L20 14L19 14L19 16L18 16L18 17L14 17L14 16L15 16L15 15L14 15L14 16L13 16L13 17L12 17L12 15L13 15L13 14L12 14L12 13L11 13L11 12L10 12L10 13L11 13L11 14L10 14L10 16L11 16L11 18L13 18L13 19L12 19L12 21L15 21L15 22L16 22L16 24L18 24L18 25L19 25L19 24L20 24L20 25L21 25L21 23L22 23L22 24L23 24L23 25L22 25L22 26L23 26L23 27L24 27L24 26L23 26L23 25L24 25L24 24L23 24L23 23L24 23L24 22L25 22L25 23L26 23L26 21L27 21L27 23L28 23L28 24L29 24L29 21L28 21L28 20L29 20L29 19L28 19L28 18L29 18L29 17L31 17L31 18L30 18L30 19L31 19L31 18L32 18L32 17L31 17L31 16L32 16L32 15L31 15L31 14L30 14L30 15L31 15L31 16L29 16L29 13L27 13L27 12L26 12L26 10L25 10L25 9ZM4 11L4 12L3 12L3 13L4 13L4 12L5 12L5 11ZM23 11L23 12L24 12L24 11ZM28 11L28 12L29 12L29 11ZM23 13L23 14L24 14L24 13ZM26 13L26 14L27 14L27 13ZM23 15L23 16L25 16L25 17L26 17L26 16L25 16L25 15ZM27 15L27 17L29 17L29 16L28 16L28 15ZM15 18L15 19L14 19L14 20L15 20L15 21L18 21L18 22L20 22L20 23L21 23L21 20L23 20L23 22L22 22L22 23L23 23L23 22L24 22L24 21L26 21L26 18L25 18L25 19L24 19L24 20L23 20L23 19L21 19L21 20L20 20L20 19L19 19L19 20L20 20L20 21L18 21L18 20L15 20L15 19L16 19L16 18ZM4 19L4 20L5 20L5 19ZM30 20L30 21L31 21L31 22L32 22L32 21L31 21L31 20ZM6 22L6 23L5 23L5 24L3 24L3 25L8 25L8 27L9 27L9 24L10 24L10 23L9 23L9 24L8 24L8 23L7 23L7 22ZM6 23L6 24L7 24L7 23ZM14 23L14 24L15 24L15 23ZM18 23L18 24L19 24L19 23ZM25 25L25 28L28 28L28 25ZM11 26L11 27L10 27L10 30L9 30L9 28L8 28L8 33L9 33L9 32L10 32L10 30L11 30L11 29L12 29L12 30L13 30L13 31L12 31L12 33L13 33L13 32L14 32L14 33L16 33L16 30L15 30L15 29L17 29L17 31L18 31L18 32L17 32L17 33L19 33L19 30L18 30L18 29L19 29L19 28L15 28L15 27L16 27L16 26L15 26L15 27L14 27L14 28L15 28L15 29L12 29L12 27L13 27L13 26ZM26 26L26 27L27 27L27 26ZM31 27L31 28L29 28L29 29L31 29L31 28L32 28L32 27ZM20 29L20 30L21 30L21 29ZM26 29L26 30L25 30L25 31L26 31L26 30L27 30L27 31L29 31L29 30L27 30L27 29ZM22 30L22 31L21 31L21 32L22 32L22 31L23 31L23 30ZM14 31L14 32L15 32L15 31ZM0 0L0 7L7 7L7 0ZM1 1L1 6L6 6L6 1ZM2 2L2 5L5 5L5 2ZM26 0L26 7L33 7L33 0ZM27 1L27 6L32 6L32 1ZM28 2L28 5L31 5L31 2ZM0 26L0 33L7 33L7 26ZM1 27L1 32L6 32L6 27ZM2 28L2 31L5 31L5 28Z" fill="#000000"/></g></g></svg>
