<?xml version="1.0" encoding="UTF-8"?>
<svg xmlns="http://www.w3.org/2000/svg" version="1.1" width="100" height="100" viewBox="0 0 100 100"><rect x="0" y="0" width="100" height="100" fill="#ffffff"/><g transform="scale(3.03)"><g transform="translate(0,0)"><path fill-rule="evenodd" d="M8 0L8 1L10 1L10 0ZM13 0L13 1L14 1L14 0ZM19 0L19 1L16 1L16 3L15 3L15 2L11 2L11 4L10 4L10 3L9 3L9 2L8 2L8 5L9 5L9 6L8 6L8 7L9 7L9 8L8 8L8 9L7 9L7 8L6 8L6 9L7 9L7 10L6 10L6 11L5 11L5 10L3 10L3 9L4 9L4 8L0 8L0 9L1 9L1 10L0 10L0 15L1 15L1 14L2 14L2 16L0 16L0 17L2 17L2 18L3 18L3 16L4 16L4 18L5 18L5 17L8 17L8 16L9 16L9 18L8 18L8 19L7 19L7 18L6 18L6 19L7 19L7 20L5 20L5 19L2 19L2 20L0 20L0 22L1 22L1 21L4 21L4 20L5 20L5 24L4 24L4 25L8 25L8 26L10 26L10 28L12 28L12 29L13 29L13 28L12 28L12 26L13 26L13 27L14 27L14 30L13 30L13 33L15 33L15 31L16 31L16 30L17 30L17 32L16 32L16 33L18 33L18 31L19 31L19 30L22 30L22 31L23 31L23 32L21 32L21 31L20 31L20 32L19 32L19 33L20 33L20 32L21 32L21 33L23 33L23 32L26 32L26 33L27 33L27 32L26 32L26 31L27 31L27 30L26 30L26 31L25 31L25 30L24 30L24 31L23 31L23 29L29 29L29 31L28 31L28 32L29 32L29 31L30 31L30 29L32 29L32 30L33 30L33 29L32 29L32 28L33 28L33 27L32 27L32 28L31 28L31 26L33 26L33 25L30 25L30 27L29 27L29 24L30 24L30 23L28 23L28 22L27 22L27 21L28 21L28 19L30 19L30 17L31 17L31 20L29 20L29 22L31 22L31 24L32 24L32 23L33 23L33 21L32 21L32 22L31 22L31 20L33 20L33 19L32 19L32 18L33 18L33 17L32 17L32 16L33 16L33 15L32 15L32 16L31 16L31 14L28 14L28 13L29 13L29 12L30 12L30 11L33 11L33 8L32 8L32 10L30 10L30 9L31 9L31 8L28 8L28 9L26 9L26 8L25 8L25 10L24 10L24 9L23 9L23 8L24 8L24 7L25 7L25 2L24 2L24 0ZM19 1L19 3L18 3L18 2L17 2L17 3L18 3L18 4L16 4L16 5L15 5L15 3L14 3L14 4L13 4L13 3L12 3L12 5L10 5L10 6L9 6L9 7L10 7L10 8L9 8L9 9L8 9L8 10L7 10L7 11L6 11L6 12L8 12L8 15L6 15L6 14L7 14L7 13L5 13L5 14L4 14L4 13L3 13L3 12L5 12L5 11L3 11L3 10L2 10L2 12L1 12L1 13L3 13L3 15L4 15L4 16L8 16L8 15L9 15L9 16L10 16L10 17L11 17L11 18L10 18L10 19L8 19L8 20L7 20L7 21L6 21L6 22L7 22L7 23L6 23L6 24L7 24L7 23L9 23L9 24L10 24L10 25L12 25L12 24L13 24L13 26L14 26L14 27L15 27L15 29L16 29L16 28L17 28L17 29L20 29L20 27L24 27L24 24L26 24L26 23L27 23L27 24L28 24L28 23L27 23L27 22L26 22L26 21L27 21L27 20L25 20L25 18L23 18L23 17L22 17L22 16L23 16L23 15L24 15L24 13L25 13L25 14L26 14L26 15L25 15L25 16L27 16L27 17L26 17L26 19L28 19L28 18L27 18L27 17L28 17L28 16L29 16L29 15L28 15L28 16L27 16L27 12L28 12L28 10L29 10L29 9L28 9L28 10L25 10L25 11L27 11L27 12L22 12L22 10L23 10L23 9L21 9L21 13L20 13L20 12L19 12L19 11L20 11L20 10L18 10L18 9L19 9L19 8L22 8L22 6L23 6L23 7L24 7L24 4L22 4L22 1L21 1L21 2L20 2L20 1ZM19 3L19 6L18 6L18 7L17 7L17 5L16 5L16 7L17 7L17 9L18 9L18 8L19 8L19 6L20 6L20 7L21 7L21 6L22 6L22 4L21 4L21 5L20 5L20 3ZM12 5L12 7L11 7L11 6L10 6L10 7L11 7L11 8L12 8L12 7L13 7L13 5ZM14 6L14 7L15 7L15 6ZM9 9L9 10L10 10L10 9ZM14 9L14 11L11 11L11 13L10 13L10 12L9 12L9 11L8 11L8 12L9 12L9 13L10 13L10 15L11 15L11 14L12 14L12 16L11 16L11 17L12 17L12 18L11 18L11 19L10 19L10 20L8 20L8 21L7 21L7 22L8 22L8 21L9 21L9 23L10 23L10 24L11 24L11 23L14 23L14 22L15 22L15 21L14 21L14 20L13 20L13 18L14 18L14 17L12 17L12 16L14 16L14 15L15 15L15 16L16 16L16 17L15 17L15 20L16 20L16 18L17 18L17 14L19 14L19 15L18 15L18 17L19 17L19 15L20 15L20 19L19 19L19 18L18 18L18 19L17 19L17 21L18 21L18 22L17 22L17 23L16 23L16 24L14 24L14 26L16 26L16 27L17 27L17 26L18 26L18 24L17 24L17 23L19 23L19 27L20 27L20 23L19 23L19 22L21 22L21 23L22 23L22 24L21 24L21 25L23 25L23 24L24 24L24 19L22 19L22 20L21 20L21 16L22 16L22 15L23 15L23 14L22 14L22 15L21 15L21 14L20 14L20 13L17 13L17 14L16 14L16 13L13 13L13 14L12 14L12 12L14 12L14 11L15 11L15 9ZM16 10L16 11L18 11L18 10ZM13 14L13 15L14 15L14 14ZM15 14L15 15L16 15L16 14ZM0 18L0 19L1 19L1 18ZM11 19L11 20L12 20L12 19ZM10 21L10 23L11 23L11 22L12 22L12 21ZM21 21L21 22L23 22L23 21ZM2 22L2 23L1 23L1 24L0 24L0 25L1 25L1 24L2 24L2 25L3 25L3 24L2 24L2 23L4 23L4 22ZM16 25L16 26L17 26L17 25ZM25 25L25 28L28 28L28 25ZM26 26L26 27L27 27L27 26ZM22 28L22 29L23 29L23 28ZM8 29L8 33L9 33L9 32L10 32L10 33L11 33L11 32L12 32L12 31L11 31L11 32L10 32L10 31L9 31L9 30L10 30L10 29ZM32 31L32 32L33 32L33 31ZM30 32L30 33L31 33L31 32ZM0 0L0 7L7 7L7 0ZM1 1L1 6L6 6L6 1ZM2 2L2 5L5 5L5 2ZM26 0L26 7L33 7L33 0ZM27 1L27 6L32 6L32 1ZM28 2L28 5L31 5L31 2ZM0 26L0 33L7 33L7 26ZM1 27L1 32L6 32L6 27ZM2 28L2 31L5 31L5 28Z" fill="#000000"/></g></g></svg>
