<?xml version="1.0" encoding="UTF-8"?>
<svg xmlns="http://www.w3.org/2000/svg" version="1.1" width="100" height="100" viewBox="0 0 100 100"><rect x="0" y="0" width="100" height="100" fill="#ffffff"/><g transform="scale(3.03)"><g transform="translate(0,0)"><path fill-rule="evenodd" d="M9 0L9 1L8 1L8 2L9 2L9 3L8 3L8 4L9 4L9 3L10 3L10 1L14 1L14 0ZM16 0L16 1L15 1L15 2L14 2L14 3L11 3L11 4L10 4L10 5L8 5L8 7L9 7L9 8L6 8L6 9L5 9L5 8L0 8L0 9L2 9L2 10L3 10L3 14L2 14L2 13L1 13L1 12L0 12L0 16L1 16L1 17L0 17L0 18L1 18L1 19L2 19L2 21L3 21L3 20L4 20L4 24L2 24L2 25L5 25L5 24L6 24L6 25L8 25L8 27L9 27L9 28L8 28L8 33L11 33L11 32L13 32L13 33L14 33L14 32L13 32L13 29L14 29L14 28L13 28L13 27L14 27L14 26L15 26L15 28L16 28L16 27L18 27L18 28L17 28L17 29L16 29L16 30L15 30L15 33L16 33L16 32L17 32L17 31L16 31L16 30L17 30L17 29L18 29L18 32L19 32L19 33L21 33L21 32L22 32L22 33L26 33L26 32L22 32L22 31L23 31L23 27L24 27L24 30L26 30L26 31L27 31L27 33L29 33L29 32L31 32L31 33L32 33L32 32L31 32L31 31L32 31L32 30L31 30L31 29L33 29L33 28L32 28L32 25L31 25L31 27L29 27L29 26L30 26L30 25L29 25L29 24L31 24L31 23L32 23L32 22L33 22L33 21L32 21L32 18L33 18L33 15L32 15L32 14L33 14L33 13L32 13L32 14L31 14L31 13L29 13L29 12L32 12L32 10L33 10L33 9L32 9L32 8L31 8L31 9L32 9L32 10L31 10L31 11L29 11L29 10L30 10L30 8L29 8L29 10L28 10L28 8L27 8L27 9L26 9L26 8L25 8L25 5L24 5L24 9L23 9L23 6L22 6L22 7L21 7L21 6L20 6L20 7L21 7L21 8L20 8L20 11L21 11L21 12L22 12L22 13L23 13L23 14L21 14L21 13L20 13L20 12L17 12L17 10L19 10L19 9L16 9L16 10L15 10L15 8L14 8L14 10L15 10L15 12L13 12L13 9L11 9L11 10L10 10L10 11L11 11L11 10L12 10L12 12L13 12L13 13L11 13L11 12L9 12L9 9L10 9L10 8L13 8L13 6L12 6L12 7L11 7L11 6L10 6L10 5L13 5L13 4L14 4L14 3L15 3L15 4L16 4L16 5L15 5L15 6L14 6L14 7L15 7L15 6L16 6L16 7L17 7L17 6L16 6L16 5L17 5L17 4L18 4L18 8L19 8L19 5L20 5L20 3L22 3L22 4L21 4L21 5L22 5L22 4L23 4L23 3L25 3L25 1L24 1L24 0L23 0L23 1L24 1L24 2L22 2L22 0L21 0L21 2L18 2L18 3L17 3L17 1L20 1L20 0ZM9 6L9 7L10 7L10 6ZM21 8L21 10L22 10L22 12L24 12L24 14L23 14L23 17L22 17L22 16L20 16L20 18L19 18L19 16L18 16L18 15L21 15L21 14L20 14L20 13L19 13L19 14L18 14L18 15L17 15L17 14L16 14L16 13L13 13L13 14L11 14L11 13L8 13L8 12L7 12L7 11L5 11L5 12L4 12L4 14L3 14L3 15L4 15L4 14L5 14L5 15L6 15L6 16L2 16L2 14L1 14L1 16L2 16L2 17L1 17L1 18L3 18L3 19L4 19L4 20L5 20L5 21L6 21L6 22L7 22L7 21L9 21L9 22L8 22L8 23L6 23L6 24L8 24L8 23L10 23L10 24L9 24L9 26L10 26L10 24L11 24L11 25L13 25L13 24L14 24L14 25L15 25L15 26L16 26L16 25L15 25L15 24L19 24L19 25L20 25L20 26L18 26L18 27L19 27L19 28L20 28L20 30L19 30L19 32L21 32L21 31L20 31L20 30L21 30L21 29L22 29L22 28L20 28L20 27L21 27L21 25L22 25L22 27L23 27L23 26L24 26L24 22L25 22L25 23L26 23L26 24L27 24L27 23L28 23L28 24L29 24L29 21L28 21L28 20L29 20L29 19L28 19L28 18L29 18L29 17L31 17L31 18L30 18L30 19L31 19L31 18L32 18L32 17L31 17L31 16L32 16L32 15L31 15L31 14L30 14L30 15L31 15L31 16L29 16L29 13L27 13L27 12L26 12L26 10L23 10L23 9L22 9L22 8ZM3 9L3 10L5 10L5 9ZM6 9L6 10L7 10L7 9ZM0 10L0 11L1 11L1 10ZM24 11L24 12L25 12L25 11ZM28 11L28 12L29 12L29 11ZM5 12L5 13L7 13L7 12ZM26 13L26 14L27 14L27 13ZM6 14L6 15L7 15L7 14ZM15 14L15 15L14 15L14 16L11 16L11 17L10 17L10 16L9 16L9 15L8 15L8 16L9 16L9 18L6 18L6 17L7 17L7 16L6 16L6 17L5 17L5 18L4 18L4 19L7 19L7 20L6 20L6 21L7 21L7 20L9 20L9 21L10 21L10 20L11 20L11 19L10 19L10 18L12 18L12 19L13 19L13 17L16 17L16 18L14 18L14 19L15 19L15 20L13 20L13 21L11 21L11 22L10 22L10 23L11 23L11 24L13 24L13 21L16 21L16 22L15 22L15 23L14 23L14 24L15 24L15 23L17 23L17 22L18 22L18 23L19 23L19 21L18 21L18 20L17 20L17 19L19 19L19 20L20 20L20 22L22 22L22 23L21 23L21 24L22 24L22 25L23 25L23 19L22 19L22 17L21 17L21 18L20 18L20 19L19 19L19 18L17 18L17 15L16 15L16 14ZM24 14L24 15L25 15L25 14ZM27 15L27 17L29 17L29 16L28 16L28 15ZM25 16L25 17L26 17L26 16ZM23 17L23 18L24 18L24 17ZM25 18L25 19L24 19L24 21L26 21L26 23L27 23L27 21L26 21L26 20L25 20L25 19L26 19L26 18ZM20 19L20 20L21 20L21 21L22 21L22 20L21 20L21 19ZM16 20L16 21L17 21L17 20ZM30 20L30 21L31 21L31 22L32 22L32 21L31 21L31 20ZM0 21L0 25L1 25L1 21ZM2 22L2 23L3 23L3 22ZM11 22L11 23L12 23L12 22ZM25 25L25 28L28 28L28 25ZM11 26L11 28L10 28L10 29L9 29L9 32L10 32L10 31L12 31L12 30L10 30L10 29L13 29L13 28L12 28L12 26ZM26 26L26 27L27 27L27 26ZM29 28L29 29L31 29L31 28ZM26 29L26 30L27 30L27 31L29 31L29 30L27 30L27 29ZM30 30L30 31L31 31L31 30ZM0 0L0 7L7 7L7 0ZM1 1L1 6L6 6L6 1ZM2 2L2 5L5 5L5 2ZM26 0L26 7L33 7L33 0ZM27 1L27 6L32 6L32 1ZM28 2L28 5L31 5L31 2ZM0 26L0 33L7 33L7 26ZM1 27L1 32L6 32L6 27ZM2 28L2 31L5 31L5 28Z" fill="#000000"/></g></g></svg>
