<?xml version="1.0" encoding="UTF-8"?>
<svg xmlns="http://www.w3.org/2000/svg" version="1.1" width="100" height="100" viewBox="0 0 100 100"><rect x="0" y="0" width="100" height="100" fill="#ffffff"/><g transform="scale(3.03)"><g transform="translate(0,0)"><path fill-rule="evenodd" d="M10 0L10 2L11 2L11 0ZM12 0L12 1L13 1L13 2L12 2L12 4L13 4L13 3L14 3L14 4L15 4L15 5L17 5L17 4L18 4L18 8L17 8L17 6L16 6L16 9L12 9L12 7L13 7L13 5L11 5L11 6L10 6L10 4L11 4L11 3L8 3L8 4L9 4L9 5L8 5L8 7L9 7L9 8L6 8L6 9L5 9L5 8L0 8L0 10L1 10L1 9L4 9L4 10L2 10L2 13L1 13L1 11L0 11L0 13L1 13L1 16L0 16L0 17L1 17L1 16L2 16L2 18L3 18L3 19L1 19L1 20L3 20L3 21L0 21L0 25L1 25L1 22L2 22L2 23L3 23L3 24L2 24L2 25L3 25L3 24L4 24L4 23L3 23L3 22L4 22L4 21L5 21L5 23L7 23L7 24L5 24L5 25L8 25L8 27L10 27L10 28L8 28L8 33L9 33L9 29L10 29L10 31L11 31L11 33L12 33L12 31L13 31L13 30L11 30L11 29L10 29L10 28L11 28L11 27L10 27L10 26L11 26L11 25L12 25L12 26L13 26L13 27L12 27L12 29L13 29L13 28L14 28L14 29L15 29L15 28L17 28L17 29L19 29L19 28L17 28L17 26L20 26L20 24L21 24L21 25L23 25L23 24L22 24L22 21L21 21L21 23L18 23L18 24L16 24L16 22L15 22L15 23L14 23L14 24L15 24L15 25L12 25L12 23L13 23L13 22L11 22L11 24L10 24L10 22L9 22L9 19L10 19L10 21L11 21L11 19L10 19L10 18L11 18L11 17L12 17L12 18L13 18L13 19L12 19L12 21L13 21L13 20L14 20L14 21L19 21L19 22L20 22L20 21L19 21L19 18L16 18L16 17L12 17L12 15L13 15L13 14L11 14L11 15L9 15L9 13L11 13L11 12L9 12L9 13L8 13L8 11L7 11L7 10L6 10L6 9L10 9L10 11L11 11L11 9L12 9L12 10L13 10L13 11L12 11L12 13L13 13L13 12L14 12L14 13L15 13L15 14L17 14L17 13L19 13L19 14L18 14L18 16L17 16L17 15L16 15L16 16L17 16L17 17L19 17L19 14L21 14L21 16L20 16L20 18L21 18L21 20L22 20L22 19L23 19L23 20L25 20L25 21L26 21L26 22L25 22L25 23L24 23L24 26L21 26L21 28L20 28L20 31L21 31L21 33L26 33L26 32L27 32L27 30L29 30L29 27L30 27L30 28L31 28L31 29L30 29L30 31L28 31L28 33L29 33L29 32L30 32L30 33L32 33L32 32L31 32L31 30L33 30L33 29L32 29L32 28L33 28L33 27L32 27L32 26L29 26L29 24L31 24L31 25L32 25L32 24L31 24L31 23L32 23L32 22L33 22L33 20L32 20L32 18L33 18L33 17L31 17L31 19L29 19L29 20L27 20L27 21L26 21L26 18L27 18L27 17L29 17L29 16L33 16L33 15L32 15L32 14L33 14L33 13L32 13L32 10L33 10L33 9L32 9L32 8L31 8L31 9L30 9L30 8L29 8L29 10L28 10L28 8L27 8L27 9L26 9L26 8L22 8L22 7L23 7L23 5L24 5L24 7L25 7L25 1L24 1L24 4L23 4L23 5L22 5L22 7L21 7L21 6L20 6L20 8L21 8L21 9L19 9L19 5L21 5L21 4L19 4L19 1L20 1L20 2L21 2L21 3L23 3L23 2L21 2L21 1L23 1L23 0L21 0L21 1L20 1L20 0L19 0L19 1L18 1L18 0L17 0L17 1L16 1L16 0ZM8 1L8 2L9 2L9 1ZM14 2L14 3L15 3L15 2ZM16 2L16 4L17 4L17 3L18 3L18 2ZM9 6L9 7L10 7L10 6ZM11 6L11 7L12 7L12 6ZM14 6L14 8L15 8L15 6ZM10 8L10 9L11 9L11 8ZM16 9L16 10L19 10L19 13L21 13L21 11L20 11L20 10L19 10L19 9ZM22 9L22 11L24 11L24 12L26 12L26 13L24 13L24 14L22 14L22 16L21 16L21 18L23 18L23 19L24 19L24 18L25 18L25 16L26 16L26 17L27 17L27 16L26 16L26 15L27 15L27 13L28 13L28 15L29 15L29 13L28 13L28 12L27 12L27 10L26 10L26 9L25 9L25 10L23 10L23 9ZM29 10L29 11L30 11L30 10ZM3 11L3 13L2 13L2 14L3 14L3 15L5 15L5 14L7 14L7 13L5 13L5 12L4 12L4 11ZM6 11L6 12L7 12L7 11ZM14 11L14 12L15 12L15 11ZM16 11L16 13L17 13L17 12L18 12L18 11ZM30 12L30 13L31 13L31 14L32 14L32 13L31 13L31 12ZM3 13L3 14L4 14L4 13ZM24 14L24 15L25 15L25 14ZM6 15L6 16L7 16L7 17L4 17L4 16L3 16L3 18L4 18L4 19L3 19L3 20L5 20L5 19L6 19L6 20L7 20L7 21L6 21L6 22L7 22L7 23L9 23L9 22L8 22L8 19L6 19L6 18L7 18L7 17L9 17L9 18L10 18L10 16L9 16L9 15L8 15L8 16L7 16L7 15ZM14 15L14 16L15 16L15 15ZM23 17L23 18L24 18L24 17ZM14 19L14 20L16 20L16 19ZM17 19L17 20L18 20L18 19ZM30 20L30 21L31 21L31 22L32 22L32 20ZM23 21L23 22L24 22L24 21ZM27 21L27 22L26 22L26 23L25 23L25 24L28 24L28 23L29 23L29 21ZM27 22L27 23L28 23L28 22ZM15 25L15 26L17 26L17 25ZM25 25L25 28L28 28L28 25ZM26 26L26 27L27 27L27 26ZM14 27L14 28L15 28L15 27ZM21 28L21 31L22 31L22 32L23 32L23 31L24 31L24 32L26 32L26 30L27 30L27 29L26 29L26 30L23 30L23 29L24 29L24 28ZM15 30L15 31L14 31L14 32L16 32L16 33L19 33L19 30L18 30L18 32L16 32L16 30ZM22 30L22 31L23 31L23 30ZM0 0L0 7L7 7L7 0ZM1 1L1 6L6 6L6 1ZM2 2L2 5L5 5L5 2ZM26 0L26 7L33 7L33 0ZM27 1L27 6L32 6L32 1ZM28 2L28 5L31 5L31 2ZM0 26L0 33L7 33L7 26ZM1 27L1 32L6 32L6 27ZM2 28L2 31L5 31L5 28Z" fill="#000000"/></g></g></svg>
